<svg width="107" height="100" viewBox="0 0 107 100" fill="none" xmlns="http://www.w3.org/2000/svg">
    <g clip-path="url(#clip0_225_106)">
        <path
            d="M45.6537 92.9287C45.5932 92.8555 45.5087 92.8063 45.4152 92.7898C45.3218 92.7733 45.2256 92.7906 45.1437 92.8386C40.5789 95.5599 35.2673 96.7542 29.9792 96.2481C24.6911 95.742 19.7014 93.562 15.7337 90.0241C10.767 85.8374 6.88372 79.6107 4.08372 71.3442C4.05019 71.2725 3.99621 71.2123 3.92858 71.1713C3.86094 71.1303 3.78269 71.1103 3.70372 71.1138H1.34372C1.23498 71.1138 1.13069 71.1571 1.0538 71.2341C0.976912 71.3111 0.933716 71.4155 0.933716 71.5245V97.3758C0.932382 97.4306 0.942001 97.4851 0.962007 97.536C0.982014 97.587 1.012 97.6335 1.05021 97.6727C1.08841 97.7119 1.13406 97.743 1.18447 97.7643C1.23488 97.7856 1.28902 97.7965 1.34372 97.7965H3.26372C3.36725 97.7947 3.46667 97.7556 3.54372 97.6863L9.86372 92.0273C9.93702 91.967 10.0289 91.9341 10.1237 91.9341C10.2185 91.9341 10.3104 91.967 10.3837 92.0273C17.597 97.3691 24.837 100.04 32.1037 100.04C37.6481 100.134 43.118 98.7518 47.9537 96.0337C48.0111 95.9996 48.0597 95.9524 48.0952 95.8959C48.1308 95.8393 48.1524 95.7751 48.1583 95.7086C48.1642 95.642 48.1541 95.575 48.129 95.5131C48.1038 95.4512 48.0643 95.3961 48.0137 95.3526C47.1611 94.6118 46.3717 93.801 45.6537 92.9287Z"
            fill="#881D91" />
        <path
            d="M95.2037 11.0176C95.8237 11.0176 96.5737 11.8489 97.4437 13.5116C97.7947 14.2729 98.3605 14.9147 99.0712 15.3578C99.782 15.801 100.607 16.0261 101.444 16.0056C102.096 16.0004 102.741 15.8649 103.34 15.6069C103.939 15.3489 104.481 14.9737 104.934 14.5032C105.467 13.9875 105.882 13.3624 106.151 12.6709C106.421 11.9794 106.537 11.2377 106.494 10.4968C106.536 9.66554 106.4 8.83486 106.095 8.06078C105.789 7.2867 105.322 6.58723 104.724 6.00957C103.59 4.93594 102.084 4.34675 100.524 4.36695C96.4637 4.36695 92.7603 6.61387 89.4137 11.1077C89.3765 11.1607 89.327 11.2039 89.2696 11.2335C89.2121 11.2632 89.1483 11.2784 89.0837 11.278C89.0313 11.2778 88.9796 11.2671 88.9315 11.2464C88.8834 11.2258 88.8399 11.1956 88.8037 11.1578C86.5737 8.93611 83.9181 7.18919 80.9966 6.02216C78.0751 4.85512 74.9481 4.2921 71.8037 4.36695C67.7512 4.31927 63.7474 5.25396 60.1337 7.0913C59.42 7.44824 58.7257 7.84276 58.0537 8.2732C57.038 8.93425 56.066 9.66025 55.1437 10.4467C53.3204 11.9633 51.7712 13.7827 50.5637 15.8253C50.1399 16.5522 49.769 17.3087 49.4537 18.0889C48.5325 20.3801 48.0704 22.8305 48.0937 25.3004C48.0937 32.5721 51.8903 38.0141 59.4837 41.6266V41.907C58.0466 42.0766 56.6253 42.3613 55.2337 42.7584C54.4513 42.9898 53.6833 43.2674 52.9337 43.5897C47.4803 45.9802 44.7537 50.5776 44.7537 57.3818C44.7537 57.8024 44.7537 58.2231 44.7537 58.6238C44.7616 58.6962 44.7878 58.7655 44.8298 58.8251C44.8718 58.8846 44.9282 58.9325 44.9937 58.9643C47.1482 59.926 49.118 61.2582 50.8137 62.9006C52.8361 64.8858 54.3343 67.3433 55.1737 70.052C55.2737 70.3826 55.3637 70.7131 55.4537 71.0537C55.6816 71.9721 55.8421 72.9061 55.9337 73.8481C55.9376 73.9345 55.9686 74.0174 56.0223 74.0851C56.0759 74.1527 56.1496 74.2017 56.2327 74.225C56.3158 74.2483 56.4041 74.2448 56.4851 74.2149C56.5661 74.185 56.6356 74.1302 56.6837 74.0585C57.762 72.641 59.0865 71.4297 60.5937 70.4827C60.6565 70.4431 60.7294 70.4222 60.8037 70.4226L63.8037 70.3125L65.9337 70.2323L68.4037 70.1322C70.4937 70.1322 73.6937 69.9218 78.0137 69.6414C82.3337 69.3609 85.1037 69.2107 86.3437 69.2107C89.3304 69.169 92.2664 69.9858 94.8037 71.5645C95.981 72.2299 96.9544 73.2049 97.6188 74.384C98.2832 75.5632 98.6134 76.9018 98.5737 78.2552C98.5737 83.1163 96.0737 87.3464 91.0737 90.9455C86.0737 94.5446 79.7403 96.3508 72.0737 96.3641C64.8337 96.3641 59.767 94.7649 56.8737 91.5665L55.5437 89.8437C54.7792 88.4893 54.2835 86.9996 54.0837 85.4567C54.0735 85.3715 54.0369 85.2915 53.979 85.2282C53.9211 85.1649 53.8449 85.1213 53.761 85.1036C53.6772 85.086 53.5899 85.095 53.5114 85.1296C53.433 85.1642 53.3673 85.2225 53.3237 85.2964C52.0491 87.2859 50.4423 89.0409 48.5737 90.4847L47.5737 91.246C47.5277 91.2793 47.4891 91.3219 47.4604 91.3709C47.4316 91.42 47.4134 91.4745 47.4068 91.531C47.4002 91.5875 47.4054 91.6448 47.4221 91.6992C47.4388 91.7535 47.4666 91.8039 47.5037 91.8469C48.3492 92.8183 49.2944 93.6978 50.3237 94.4711C50.6737 94.7416 51.0337 95.002 51.4137 95.2624L52.1437 95.7432C56.6903 98.581 62.6903 100 70.1437 100C80.297 100 88.2437 97.6128 93.9837 92.8385C99.7237 88.0642 102.594 82.1815 102.594 75.1903C102.594 69.1807 101.007 64.5733 97.8337 61.3682C96.2116 59.7511 94.2744 58.4861 92.1427 57.652C90.011 56.818 87.7306 56.4327 85.4437 56.5204L64.6137 57.3818L62.4537 57.4719H61.1037C55.9837 57.4719 52.7837 57.0446 51.5037 56.1899C50.8823 55.7832 50.3781 55.2206 50.0412 54.5581C49.7044 53.8957 49.5466 53.1564 49.5837 52.4138C49.5837 50.5108 50.8137 48.7146 53.2737 47.0252C53.9578 46.5562 54.6691 46.1281 55.4037 45.7431C56.0665 45.3946 56.7593 45.1063 57.4737 44.8818C58.2093 44.6369 58.9785 44.5085 59.7537 44.5012C59.947 44.5012 61.467 44.6314 64.3137 44.8918C67.1603 45.1522 69.407 45.2824 71.0537 45.2824L74.5937 45.0721C77.927 45.0721 82.2103 43.4027 87.4437 40.0641C92.677 36.7254 95.297 31.7942 95.3037 25.2704C95.1833 21.1412 93.7856 17.1514 91.3037 13.8521C91.2461 13.7795 91.2147 13.6895 91.2147 13.5967C91.2147 13.504 91.2461 13.4139 91.3037 13.3413C92.7703 11.7922 94.0703 11.0176 95.2037 11.0176ZM80.4737 38.4214C79.4803 40.7452 76.5137 41.907 71.5737 41.907C66.7437 41.907 63.8037 40.7652 62.7937 38.4915C61.7837 36.2179 61.2637 31.1298 61.2637 23.2371C61.2637 17.7684 61.8037 13.8822 62.9037 11.5484C64.0037 9.2147 66.8337 8.01278 71.4337 8.01278C74.8937 8.01278 77.5237 8.83409 79.2937 10.4767C81.0637 12.1194 81.9337 15.7752 81.9337 21.3842C81.9337 30.4053 81.447 36.0844 80.4737 38.4214Z"
            fill="#881D91" />
        <path
            d="M16.3737 51.2119C20.507 52.9414 26.427 54.4638 34.1337 55.7793C36.7444 56.1986 39.3163 56.8317 41.8237 57.6723C41.8237 57.5721 41.8237 57.472 41.8237 57.3818C41.8237 48.5477 46.0337 44.0305 50.1337 41.7168C49.6937 41.4664 49.2537 41.236 48.7937 41.0256C44.5537 39.0224 38.377 37.3097 30.2637 35.8874C22.1503 34.4651 16.5603 32.482 13.4937 29.9379C12.0709 28.8354 10.9198 27.4203 10.1292 25.8019C9.33862 24.1834 8.9296 22.4048 8.93367 20.603C8.93367 16.6567 10.7703 12.8405 14.4437 9.15465C18.117 5.46875 23.2803 3.62914 29.9337 3.63582C33.6199 3.54686 37.2712 4.36951 40.5643 6.03094C43.8574 7.69237 46.6908 10.1413 48.8137 13.1611L48.9937 13.4115C49.0315 13.4652 49.0817 13.509 49.14 13.5393C49.1983 13.5696 49.263 13.5854 49.3287 13.5854C49.3943 13.5854 49.459 13.5696 49.5173 13.5393C49.5756 13.509 49.6258 13.4652 49.6637 13.4115C50.8454 11.7167 52.244 10.1845 53.8237 8.85417C55.0689 7.77854 56.4075 6.81651 57.8237 5.97957C57.8881 5.94507 57.9412 5.89272 57.9767 5.82877C58.0121 5.76482 58.0285 5.69199 58.0237 5.61899V4.89784L57.9337 1.55248C57.9311 1.44266 57.8857 1.33822 57.8072 1.26148C57.7287 1.18474 57.6234 1.1418 57.5137 1.14183H55.2537C55.1806 1.14248 55.1089 1.16223 55.0458 1.19911C54.9827 1.236 54.9302 1.28876 54.8937 1.35216C53.745 3.33175 52.3357 5.14758 50.7037 6.7508C50.6304 6.81102 50.5385 6.84393 50.4437 6.84393C50.3489 6.84393 50.257 6.81102 50.1837 6.7508C44.3284 2.38893 37.2309 0.0228055 29.9337 0C21.127 0 14.1637 2.83787 9.04367 8.51362C4.1043 13.741 1.35543 20.6673 1.36367 27.8646C1.32057 32.9713 2.8615 37.9655 5.77367 42.1575C8.34408 46.1514 12.0303 49.3002 16.3737 51.2119Z"
            fill="#881D91" />
    </g>
    <defs>
        <clipPath id="clip0_225_106">
            <rect width="105.51" height="100" fill="white" transform="translate(0.933594)" />
        </clipPath>
    </defs>
</svg>