<svg width="500" height="500" viewBox="0 0 500 500" fill="none" xmlns="http://www.w3.org/2000/svg">
<rect width="500" height="500" rx="50" fill="white"/>
<path d="M356.821 164.497L297.584 198.75C279.839 168.103 246.749 147.5 208.857 147.5C170.966 147.5 137.876 168.103 120.216 198.75C111.472 213.859 106.5 231.286 106.5 250C106.5 268.714 111.472 286.141 120.216 301.25C137.876 331.897 170.966 352.5 208.857 352.5C246.749 352.5 279.839 331.897 297.499 301.25L357.164 335.76C371.652 310.693 379.968 281.505 379.968 250.429C379.968 219.095 371.481 189.736 356.821 164.497Z" fill="url(#paint0_radial_194_16)"/>
<path fill-rule="evenodd" clip-rule="evenodd" d="M368.465 157.665C384.315 184.866 393.5 216.532 393.5 250.313C393.5 283.801 384.505 315.289 368.824 342.334L345.903 329.065C359.309 305.944 367.01 279.018 367.01 250.313C367.01 221.384 359.155 194.293 345.573 170.983L368.465 157.665Z" fill="#0D4266"/>
<path d="M272.766 286.828L297.645 301.25C279.972 331.897 246.856 352.5 208.936 352.5C171.016 352.5 137.9 331.897 120.227 301.25C111.476 286.141 106.5 268.629 106.5 250C106.5 231.371 111.476 213.859 120.227 198.75C137.9 168.103 171.016 147.5 208.936 147.5C246.856 147.5 279.972 168.103 297.645 198.75L272.766 213.086C271.822 213.601 270.535 213.344 270.02 212.399C269.934 212.314 269.934 212.228 269.849 212.142C269.849 212.142 269.849 212.142 269.849 212.056C269.677 211.799 269.505 211.541 269.334 211.198C269.248 211.026 269.162 210.854 268.991 210.683C268.905 210.511 268.819 210.425 268.733 210.253C268.648 210.082 268.562 209.91 268.39 209.824C268.304 209.652 268.133 209.481 268.047 209.223C267.961 209.137 267.875 208.966 267.79 208.88C267.704 208.708 267.532 208.536 267.446 208.365C267.361 208.193 267.275 208.107 267.103 207.936C266.932 207.764 266.846 207.592 266.674 207.42C266.589 207.335 266.503 207.249 266.417 207.163C266.245 206.905 266.074 206.734 265.902 206.476C265.816 206.39 265.731 206.304 265.731 206.219C265.559 206.047 265.387 205.789 265.302 205.618C265.216 205.532 265.13 205.36 265.044 205.274C264.873 205.103 264.701 204.931 264.615 204.673C264.53 204.588 264.444 204.416 264.358 204.33C264.186 204.158 264.101 203.987 263.929 203.815C263.843 203.643 263.672 203.557 263.586 203.386C263.5 203.214 263.328 203.042 263.243 202.956C263.157 202.785 262.985 202.699 262.899 202.527C262.814 202.441 262.642 202.27 262.556 202.184C262.385 202.012 262.213 201.84 262.042 201.669C261.956 201.583 261.87 201.497 261.784 201.411C261.613 201.24 261.527 201.068 261.355 200.896C261.184 200.724 261.098 200.639 260.926 200.467C260.755 200.295 260.583 200.124 260.497 199.952C260.411 199.866 260.412 199.866 260.326 199.78C260.154 199.608 259.983 199.351 259.725 199.179C259.554 199.008 259.468 198.922 259.296 198.75C259.21 198.664 259.125 198.578 258.953 198.407C258.781 198.235 258.61 198.063 258.352 197.892C258.267 197.806 258.181 197.72 258.095 197.634C257.838 197.462 257.666 197.205 257.409 197.033C257.323 196.947 257.323 196.947 257.323 196.947C257.066 196.776 256.894 196.518 256.637 196.346C256.551 196.26 256.551 196.26 256.465 196.175C256.208 196.003 256.036 195.745 255.779 195.574C255.693 195.488 255.693 195.488 255.607 195.402C255.436 195.316 255.35 195.144 255.178 195.059C255.007 194.887 254.835 194.715 254.663 194.629C254.406 194.372 254.063 194.2 253.805 193.943C253.548 193.685 253.291 193.513 252.948 193.256C252.69 192.998 252.347 192.827 252.004 192.569C251.661 192.312 251.403 192.14 251.06 191.882H250.974C250.374 191.453 249.773 191.024 249.173 190.595C248.915 190.423 248.572 190.165 248.315 189.994C248.057 189.822 247.714 189.65 247.457 189.393C247.285 189.307 247.028 189.135 246.856 189.049C246.685 188.964 246.513 188.792 246.256 188.706C245.913 188.534 245.569 188.277 245.226 188.105C244.711 187.848 244.197 187.504 243.682 187.247C243.51 187.161 243.339 187.075 243.167 186.989C242.996 186.903 242.824 186.817 242.652 186.732C242.481 186.646 242.309 186.56 242.138 186.474C241.795 186.302 241.451 186.131 241.108 185.959C240.937 185.873 240.765 185.787 240.593 185.701C240.079 185.444 239.564 185.186 239.049 184.929C238.878 184.843 238.706 184.757 238.534 184.671C238.363 184.585 238.191 184.5 238.02 184.414C237.848 184.328 237.677 184.242 237.505 184.156C237.333 184.07 237.162 183.985 237.076 183.985C236.647 183.813 236.132 183.555 235.703 183.384C235.532 183.298 235.446 183.298 235.274 183.212C235.103 183.126 234.931 183.04 234.76 183.04C234.416 182.954 234.073 182.783 233.816 182.697C233.044 182.439 232.357 182.182 231.585 181.924C231.328 181.838 231.071 181.753 230.727 181.667C230.298 181.581 229.955 181.409 229.526 181.323C229.097 181.237 228.668 181.066 228.239 180.98C228.068 180.98 227.982 180.894 227.81 180.894C227.124 180.722 226.524 180.551 225.837 180.379C225.58 180.293 225.237 180.207 224.979 180.207C224.722 180.121 224.55 180.121 224.293 180.036C224.121 180.036 223.95 179.95 223.692 179.95C223.521 179.95 223.349 179.864 223.178 179.864C222.92 179.778 222.749 179.778 222.491 179.692C222.32 179.692 222.148 179.606 221.977 179.606C221.805 179.606 221.719 179.521 221.548 179.521C221.376 179.521 221.29 179.435 221.119 179.435C220.947 179.435 220.861 179.349 220.69 179.349C220.518 179.349 220.346 179.263 220.175 179.263C220.003 179.263 219.832 179.177 219.66 179.177C218.545 179.005 217.43 178.834 216.314 178.748C216.143 178.748 215.971 178.748 215.799 178.662C215.456 178.662 215.027 178.576 214.684 178.576C214.598 178.576 214.427 178.576 214.341 178.576C214.169 178.576 213.998 178.576 213.912 178.576C213.74 178.576 213.483 178.576 213.311 178.576C213.14 178.576 213.054 178.576 212.883 178.576C212.625 178.576 212.368 178.576 212.11 178.576C211.681 178.576 211.252 178.576 210.909 178.576C210.309 178.576 209.708 178.576 209.022 178.576C182.512 178.576 159.348 192.998 146.908 214.46C140.817 225.019 137.299 237.295 137.299 250.343C137.299 263.392 140.817 275.668 146.908 286.227C159.348 307.688 182.512 322.111 209.022 322.111C209.622 322.111 210.223 322.111 210.909 322.111C211.338 322.111 211.767 322.111 212.11 322.111C212.368 322.111 212.625 322.111 212.883 322.111C213.054 322.111 213.14 322.111 213.311 322.111C213.483 322.111 213.74 322.111 213.912 322.111C214.598 322.025 215.199 322.025 215.885 321.939C216.057 321.939 216.228 321.939 216.4 321.853C217.515 321.767 218.631 321.595 219.746 321.424C219.918 321.424 220.089 321.338 220.261 321.338C220.432 321.338 220.604 321.252 220.775 321.252C220.947 321.252 221.033 321.166 221.204 321.166C221.376 321.166 221.462 321.08 221.633 321.08C221.805 321.08 221.891 320.995 222.062 320.995C222.234 320.995 222.405 320.909 222.577 320.909C222.834 320.909 223.006 320.823 223.263 320.737C223.435 320.737 223.607 320.651 223.778 320.651C223.95 320.651 224.121 320.565 224.379 320.565C224.636 320.479 224.808 320.479 225.065 320.394C225.322 320.308 225.666 320.222 225.923 320.222C226.609 320.05 227.21 319.879 227.896 319.707C228.068 319.707 228.154 319.621 228.325 319.621C228.754 319.535 229.183 319.363 229.612 319.278C230.041 319.192 230.384 319.02 230.813 318.934C231.071 318.848 231.328 318.763 231.671 318.677C232.443 318.419 233.215 318.162 233.902 317.904C234.245 317.818 234.588 317.647 234.845 317.561C235.017 317.475 235.189 317.389 235.36 317.389C235.532 317.303 235.618 317.303 235.789 317.217C236.304 317.046 236.733 316.874 237.162 316.616C237.333 316.531 237.505 316.445 237.591 316.445C237.762 316.359 237.934 316.273 238.105 316.187C238.277 316.101 238.449 316.015 238.62 315.93C238.792 315.844 238.963 315.758 239.135 315.672C239.65 315.415 240.164 315.157 240.679 314.899C240.851 314.814 241.022 314.728 241.194 314.642C241.537 314.47 241.88 314.299 242.224 314.127C242.395 314.041 242.567 313.955 242.738 313.869C242.91 313.783 243.081 313.698 243.253 313.612C243.425 313.526 243.596 313.44 243.768 313.354C244.283 313.097 244.797 312.753 245.312 312.496C245.655 312.324 245.998 312.067 246.342 311.895C246.513 311.809 246.685 311.637 246.942 311.552C247.114 311.466 247.371 311.294 247.543 311.208C247.8 311.036 248.143 310.865 248.401 310.607C248.658 310.436 249.001 310.178 249.258 310.006C249.859 309.577 250.46 309.148 251.06 308.719H251.146C251.489 308.461 251.746 308.289 252.09 308.032C252.433 307.774 252.69 307.603 253.033 307.345C253.291 307.088 253.548 306.916 253.891 306.658C254.149 306.401 254.492 306.229 254.749 305.972C254.921 305.8 255.092 305.628 255.264 305.542C255.436 305.456 255.521 305.285 255.693 305.199C255.779 305.113 255.779 305.113 255.865 305.027C256.122 304.856 256.293 304.598 256.551 304.426C256.637 304.34 256.637 304.34 256.722 304.255C256.98 304.083 257.151 303.825 257.409 303.654C257.495 303.654 257.495 303.568 257.495 303.568C257.752 303.396 257.924 303.139 258.181 302.967C258.267 302.881 258.352 302.795 258.438 302.709C258.61 302.538 258.781 302.366 259.039 302.194C259.125 302.108 259.21 302.023 259.382 301.851C259.554 301.679 259.639 301.593 259.811 301.422C259.983 301.25 260.24 300.992 260.411 300.821C260.497 300.735 260.497 300.735 260.583 300.649C260.755 300.477 260.926 300.306 261.012 300.134C261.184 299.962 261.269 299.876 261.441 299.705C261.613 299.533 261.784 299.361 261.87 299.19C261.956 299.104 262.042 299.018 262.127 298.932C262.299 298.76 262.471 298.589 262.642 298.417C262.728 298.331 262.899 298.16 262.985 298.074C263.071 297.902 263.243 297.816 263.328 297.644C263.5 297.473 263.586 297.387 263.672 297.215C263.757 297.044 263.929 296.958 264.015 296.786C264.186 296.614 264.272 296.443 264.444 296.271C264.53 296.185 264.615 296.013 264.701 295.928C264.873 295.756 265.044 295.584 265.13 295.327C265.216 295.241 265.302 295.069 265.387 294.983C265.559 294.812 265.731 294.554 265.816 294.382C265.902 294.296 265.988 294.211 265.988 294.125C266.16 293.867 266.331 293.696 266.503 293.438C266.589 293.352 266.674 293.266 266.76 293.18C266.932 293.009 267.018 292.837 267.189 292.665C267.275 292.494 267.361 292.408 267.532 292.236C267.618 292.064 267.79 291.893 267.875 291.721C267.961 291.635 268.047 291.464 268.133 291.378C268.304 291.206 268.39 291.034 268.476 290.777C268.562 290.605 268.648 290.433 268.819 290.348C268.905 290.176 268.991 290.09 269.077 289.918C269.162 289.747 269.248 289.575 269.42 289.403C269.591 289.146 269.763 288.888 269.934 288.545C269.934 288.545 269.934 288.545 269.934 288.459C270.02 288.373 270.02 288.287 270.106 288.201C270.535 287.6 271.136 287.257 271.822 287.257C271.908 287.257 271.908 287.257 271.993 287.257H272.079C272.079 287.257 272.079 287.257 272.165 287.257H272.251H272.337H272.422C272.422 287.257 272.508 287.257 272.508 287.343C272.508 287.343 272.594 287.343 272.594 287.429C272.68 286.828 272.68 286.828 272.766 286.828Z" fill="#0D4266"/>
<path d="M245.771 250C245.771 257.452 243.804 264.476 240.298 270.472C233.199 282.721 220.029 290.944 204.892 290.944C189.755 290.944 176.584 282.721 169.486 270.472C165.98 264.476 164.013 257.452 164.013 250C164.013 242.548 165.98 235.524 169.486 229.528C176.584 217.28 189.755 209.057 204.892 209.057C220.029 209.057 233.199 217.28 240.298 229.528C243.804 235.524 245.771 242.548 245.771 250Z" fill="#56033A"/>
<defs>
<radialGradient id="paint0_radial_194_16" cx="0" cy="0" r="1" gradientUnits="userSpaceOnUse" gradientTransform="translate(206.583 249.718) rotate(-0.527562) scale(279.383 279.772)">
<stop offset="1.01661e-07" stop-color="#156EAB" stop-opacity="0.29"/>
<stop offset="0.7434" stop-color="#156EAB" stop-opacity="0"/>
</radialGradient>
</defs>
</svg>
