<svg width="509" height="363" viewBox="0 0 509 363" fill="none" xmlns="http://www.w3.org/2000/svg">
    <path
        d="M443.95 30.098L338.892 90.75C307.42 36.4824 248.734 0 181.533 0C114.332 0 55.6458 36.4824 24.326 90.75C8.81818 117.504 0 148.362 0 181.5C0 214.638 8.81818 245.496 24.326 272.25C55.6458 326.518 114.332 363 181.533 363C248.734 363 307.42 326.518 338.74 272.25L444.558 333.358C470.252 288.971 485 237.288 485 182.26C485 126.776 469.948 74.7889 443.95 30.098Z"
        fill="url(#paint0_radial_193_33)" />
    <path fill-rule="evenodd" clip-rule="evenodd"
        d="M464.6 18C492.71 66.1657 509 122.238 509 182.054C509 241.353 493.048 297.109 465.236 345L424.585 321.504C448.362 280.562 462.02 232.883 462.02 182.054C462.02 130.83 448.089 82.8584 424 41.5832L464.6 18Z"
        fill="#E1F1FC" />
    <path
        d="M294.875 246.712L339 272.25C307.656 326.518 248.925 363 181.672 363C114.42 363 55.6885 326.518 24.3447 272.25C8.82496 245.496 0 214.486 0 181.5C0 148.514 8.82496 117.504 24.3447 90.75C55.6885 36.4824 114.42 0 181.672 0C248.925 0 307.656 36.4824 339 90.75L294.875 116.136C293.202 117.048 290.919 116.592 290.006 114.92C289.854 114.768 289.854 114.616 289.702 114.464C289.702 114.464 289.702 114.464 289.702 114.312C289.398 113.856 289.093 113.399 288.789 112.791C288.637 112.487 288.485 112.183 288.18 111.879C288.028 111.575 287.876 111.423 287.724 111.119C287.572 110.815 287.42 110.511 287.115 110.359C286.963 110.055 286.659 109.751 286.507 109.295C286.355 109.143 286.202 108.839 286.05 108.687C285.898 108.383 285.594 108.079 285.442 107.775C285.29 107.471 285.137 107.319 284.833 107.015C284.529 106.711 284.377 106.407 284.072 106.103C283.92 105.951 283.768 105.799 283.616 105.647C283.311 105.191 283.007 104.887 282.703 104.431C282.551 104.279 282.399 104.127 282.399 103.975C282.094 103.671 281.79 103.215 281.638 102.911C281.486 102.759 281.333 102.455 281.181 102.303C280.877 101.999 280.573 101.695 280.421 101.239C280.268 101.087 280.116 100.783 279.964 100.631C279.66 100.327 279.508 100.023 279.203 99.7186C279.051 99.4146 278.747 99.2626 278.595 98.9585C278.443 98.6545 278.138 98.3505 277.986 98.1985C277.834 97.8945 277.53 97.7425 277.377 97.4384C277.225 97.2864 276.921 96.9824 276.769 96.8304C276.465 96.5264 276.16 96.2224 275.856 95.9183C275.704 95.7663 275.552 95.6143 275.399 95.4623C275.095 95.1583 274.943 94.8543 274.639 94.5503C274.334 94.2462 274.182 94.0942 273.878 93.7902C273.574 93.4862 273.269 93.1822 273.117 92.8781C272.965 92.7261 272.965 92.7261 272.813 92.5741C272.509 92.2701 272.204 91.8141 271.748 91.51C271.443 91.206 271.291 91.054 270.987 90.75C270.835 90.598 270.683 90.446 270.378 90.142C270.074 89.8379 269.77 89.5339 269.313 89.2299C269.161 89.0779 269.009 88.9259 268.857 88.7739C268.4 88.4698 268.096 88.0138 267.64 87.7098C267.487 87.5578 267.487 87.5578 267.487 87.5578C267.031 87.2538 266.727 86.7977 266.27 86.4937C266.118 86.3417 266.118 86.3417 265.966 86.1897C265.509 85.8857 265.205 85.4296 264.749 85.1256C264.596 84.9736 264.597 84.9736 264.444 84.8216C264.14 84.6696 263.988 84.3656 263.684 84.2136C263.379 83.9095 263.075 83.6055 262.771 83.4535C262.314 82.9975 261.706 82.6935 261.249 82.2374C260.793 81.7814 260.336 81.4774 259.728 81.0214C259.271 80.5653 258.662 80.2613 258.054 79.8053C257.445 79.3492 256.989 79.0452 256.38 78.5892H256.228C255.163 77.8291 254.098 77.0691 253.033 76.309C252.576 76.005 251.968 75.549 251.511 75.245C251.055 74.941 250.446 74.6369 249.99 74.1809C249.685 74.0289 249.229 73.7249 248.925 73.5729C248.62 73.4209 248.316 73.1168 247.86 72.9648C247.251 72.6608 246.642 72.2048 246.034 71.9008C245.121 71.4447 244.208 70.8367 243.295 70.3807C242.991 70.2286 242.686 70.0766 242.382 69.9246C242.078 69.7726 241.773 69.6206 241.469 69.4686C241.165 69.3166 240.86 69.1646 240.556 69.0126C239.947 68.7085 239.339 68.4045 238.73 68.1005C238.426 67.9485 238.122 67.7965 237.817 67.6445C236.904 67.1884 235.991 66.7324 235.079 66.2764C234.774 66.1244 234.47 65.9724 234.166 65.8203C233.861 65.6683 233.557 65.5163 233.253 65.3643C232.948 65.2123 232.644 65.0603 232.34 64.9083C232.035 64.7563 231.731 64.6043 231.579 64.6043C230.818 64.3003 229.905 63.8442 229.145 63.5402C228.84 63.3882 228.688 63.3882 228.384 63.2362C228.079 63.0842 227.775 62.9322 227.471 62.9322C226.862 62.7802 226.254 62.4761 225.797 62.3241C224.428 61.8681 223.211 61.4121 221.841 60.956C221.385 60.804 220.928 60.652 220.32 60.5C219.559 60.348 218.95 60.044 218.189 59.892C217.429 59.74 216.668 59.4359 215.907 59.2839C215.603 59.2839 215.451 59.1319 215.146 59.1319C213.929 58.8279 212.864 58.5239 211.647 58.2198C211.19 58.0678 210.582 57.9158 210.125 57.9158C209.669 57.7638 209.364 57.7638 208.908 57.6118C208.604 57.6118 208.299 57.4598 207.843 57.4598C207.539 57.4598 207.234 57.3078 206.93 57.3078C206.474 57.1558 206.169 57.1558 205.713 57.0038C205.408 57.0038 205.104 56.8518 204.8 56.8518C204.496 56.8518 204.343 56.6997 204.039 56.6997C203.735 56.6997 203.583 56.5477 203.278 56.5477C202.974 56.5477 202.822 56.3957 202.518 56.3957C202.213 56.3957 201.909 56.2437 201.605 56.2437C201.3 56.2437 200.996 56.0917 200.692 56.0917C198.714 55.7877 196.736 55.4837 194.758 55.3317C194.453 55.3317 194.149 55.3317 193.845 55.1796C193.236 55.1796 192.475 55.0276 191.867 55.0276C191.715 55.0276 191.41 55.0276 191.258 55.0276C190.954 55.0276 190.649 55.0276 190.497 55.0276C190.193 55.0276 189.737 55.0276 189.432 55.0276C189.128 55.0276 188.976 55.0276 188.671 55.0276C188.215 55.0276 187.759 55.0276 187.302 55.0276C186.541 55.0276 185.781 55.0276 185.172 55.0276C184.107 55.0276 183.042 55.0276 181.825 55.0276C134.809 55.0276 93.7271 80.5653 71.6647 118.568C60.8618 137.265 54.6234 159.003 54.6234 182.108C54.6234 205.214 60.8618 226.951 71.6647 245.648C93.7271 283.651 134.809 309.188 181.825 309.188C182.89 309.188 183.955 309.188 185.172 309.188C185.933 309.188 186.693 309.188 187.302 309.188C187.759 309.188 188.215 309.188 188.671 309.188C188.976 309.188 189.128 309.188 189.432 309.188C189.737 309.188 190.193 309.188 190.497 309.188C191.715 309.036 192.78 309.036 193.997 308.884C194.301 308.884 194.605 308.884 194.91 308.732C196.888 308.58 198.866 308.276 200.844 307.972C201.148 307.972 201.452 307.82 201.757 307.82C202.061 307.82 202.365 307.668 202.67 307.668C202.974 307.668 203.126 307.516 203.43 307.516C203.735 307.516 203.887 307.364 204.191 307.364C204.496 307.364 204.648 307.212 204.952 307.212C205.256 307.212 205.561 307.06 205.865 307.06C206.321 307.06 206.626 306.908 207.082 306.756C207.386 306.756 207.691 306.604 207.995 306.604C208.299 306.604 208.604 306.452 209.06 306.452C209.517 306.3 209.821 306.3 210.277 306.148C210.734 305.996 211.342 305.844 211.799 305.844C213.016 305.54 214.081 305.236 215.298 304.932C215.603 304.932 215.755 304.78 216.059 304.78C216.82 304.628 217.581 304.324 218.342 304.172C219.102 304.02 219.711 303.716 220.472 303.564C220.928 303.412 221.385 303.26 221.993 303.108C223.363 302.652 224.732 302.196 225.949 301.74C226.558 301.588 227.167 301.284 227.623 301.132C227.927 300.98 228.232 300.828 228.536 300.828C228.84 300.676 228.992 300.676 229.297 300.524C230.21 300.22 230.97 299.916 231.731 299.46C232.035 299.308 232.34 299.156 232.492 299.156C232.796 299.004 233.101 298.852 233.405 298.7C233.709 298.548 234.013 298.396 234.318 298.244C234.622 298.092 234.926 297.94 235.231 297.788C236.144 297.332 237.057 296.876 237.969 296.42C238.274 296.268 238.578 296.116 238.882 295.964C239.491 295.66 240.1 295.356 240.708 295.052C241.013 294.9 241.317 294.747 241.621 294.595C241.925 294.443 242.23 294.291 242.534 294.139C242.838 293.987 243.143 293.835 243.447 293.683C244.36 293.227 245.273 292.619 246.186 292.163C246.794 291.859 247.403 291.403 248.012 291.099C248.316 290.947 248.62 290.643 249.077 290.491C249.381 290.339 249.838 290.035 250.142 289.883C250.598 289.579 251.207 289.275 251.663 288.819C252.12 288.515 252.728 288.059 253.185 287.755C254.25 286.995 255.315 286.235 256.38 285.475H256.532C257.141 285.019 257.597 284.715 258.206 284.259C258.815 283.803 259.271 283.499 259.88 283.043C260.336 282.587 260.793 282.283 261.401 281.827C261.858 281.371 262.466 281.067 262.923 280.611C263.227 280.307 263.531 280.003 263.836 279.851C264.14 279.698 264.292 279.394 264.596 279.242C264.749 279.09 264.749 279.09 264.901 278.938C265.357 278.634 265.662 278.178 266.118 277.874C266.27 277.722 266.27 277.722 266.422 277.57C266.879 277.266 267.183 276.81 267.64 276.506C267.792 276.506 267.792 276.354 267.792 276.354C268.248 276.05 268.553 275.594 269.009 275.29C269.161 275.138 269.313 274.986 269.465 274.834C269.77 274.53 270.074 274.226 270.531 273.922C270.683 273.77 270.835 273.618 271.139 273.314C271.443 273.01 271.596 272.858 271.9 272.554C272.204 272.25 272.661 271.794 272.965 271.49C273.117 271.338 273.117 271.338 273.269 271.186C273.574 270.882 273.878 270.578 274.03 270.274C274.334 269.97 274.487 269.818 274.791 269.514C275.095 269.21 275.399 268.906 275.552 268.602C275.704 268.45 275.856 268.298 276.008 268.146C276.312 267.842 276.617 267.538 276.921 267.234C277.073 267.082 277.377 266.778 277.53 266.626C277.682 266.322 277.986 266.17 278.138 265.866C278.443 265.562 278.595 265.41 278.747 265.106C278.899 264.801 279.203 264.649 279.355 264.345C279.66 264.041 279.812 263.737 280.116 263.433C280.268 263.281 280.421 262.977 280.573 262.825C280.877 262.521 281.181 262.217 281.333 261.761C281.486 261.609 281.638 261.305 281.79 261.153C282.094 260.849 282.399 260.393 282.551 260.089C282.703 259.937 282.855 259.785 282.855 259.633C283.159 259.177 283.464 258.873 283.768 258.417C283.92 258.265 284.072 258.113 284.224 257.961C284.529 257.657 284.681 257.353 284.985 257.049C285.137 256.745 285.289 256.593 285.594 256.289C285.746 255.985 286.05 255.681 286.202 255.377C286.355 255.225 286.507 254.921 286.659 254.769C286.963 254.465 287.115 254.161 287.268 253.705C287.42 253.401 287.572 253.097 287.876 252.945C288.028 252.641 288.18 252.489 288.333 252.185C288.485 251.881 288.637 251.577 288.941 251.273C289.246 250.817 289.55 250.361 289.854 249.753C289.854 249.753 289.854 249.753 289.854 249.6C290.006 249.448 290.006 249.296 290.158 249.144C290.919 248.08 291.984 247.472 293.202 247.472C293.354 247.472 293.354 247.472 293.506 247.472H293.658C293.658 247.472 293.658 247.472 293.81 247.472H293.962H294.114H294.267C294.267 247.472 294.419 247.472 294.419 247.624C294.419 247.624 294.571 247.624 294.571 247.776C294.723 246.712 294.723 246.712 294.875 246.712Z"
        fill="#E1F1FC" />
    <path
        d="M247 181.5C247 194.696 243.512 207.133 237.293 217.75C224.704 239.439 201.346 254 174.5 254C147.654 254 124.296 239.439 111.707 217.75C105.488 207.133 102 194.696 102 181.5C102 168.304 105.488 155.867 111.707 145.25C124.296 123.561 147.654 109 174.5 109C201.346 109 224.704 123.561 237.293 145.25C243.512 155.867 247 168.304 247 181.5Z"
        fill="#E585C4" />
    <defs>
        <radialGradient id="paint0_radial_193_33" cx="0" cy="0" r="1" gradientUnits="userSpaceOnUse"
            gradientTransform="translate(177.5 181) rotate(-0.526733) scale(495.491 495.402)">
            <stop offset="1.01661e-07" stop-color="#E585C4" stop-opacity="0.17" />
            <stop offset="0.7434" stop-color="#E585C4" stop-opacity="0" />
        </radialGradient>
    </defs>
</svg>