<svg width="65" height="40" viewBox="0 0 65 40" fill="none" xmlns="http://www.w3.org/2000/svg">
<path d="M9.38224 39.112C8.37838 38.5328 7.60618 37.7606 6.98842 36.8726C6.33205 35.946 5.86873 34.9035 5.55985 33.7838C5.25097 32.6641 5.13514 31.5444 5.13514 30.4633V27.1429C5.13514 25.3282 4.71043 24.0154 3.861 23.2432C3.01158 22.471 1.73745 22.0463 0 22.0463V17.9537C1.73745 17.9537 3.01158 17.5676 3.861 16.7567C4.71043 15.9845 5.13514 14.6332 5.13514 12.8185V9.49806C5.13514 8.33976 5.28958 7.14285 5.63707 5.90733C5.98456 4.67181 6.48649 3.59073 7.18147 2.7027C7.76062 1.9305 8.53282 1.27413 9.49807 0.772201C10.4633 0.27027 11.583 0 12.8958 0L13.5907 3.20463C12.7413 3.16602 12.1236 3.35906 11.6602 3.74516C11.1969 4.13126 10.888 4.63321 10.695 5.21236C10.5019 5.83012 10.3861 6.52509 10.3475 7.25868C10.3089 8.03089 10.3089 8.76447 10.3089 9.49806V12.8185C10.3089 14.4401 9.92278 15.8687 9.11197 17.1428C8.30116 18.3784 7.06564 19.3436 5.40541 20C7.10425 20.6564 8.33977 21.583 9.11197 22.8571C9.88417 24.0927 10.3089 25.5212 10.3089 27.1429V30.4633C10.3089 31.1969 10.3475 31.9305 10.4247 32.7027C10.5019 33.4749 10.695 34.1313 10.9266 34.749C11.1583 35.3668 11.5058 35.8687 11.9305 36.2162C12.3552 36.5637 12.8958 36.7567 13.5907 36.7567L12.8958 40C11.5444 40 10.3861 39.6911 9.38224 39.112Z" fill="#8BBA67"/>
<path d="M33.0888 28.2625C33.5907 28.108 34.054 27.8764 34.4015 27.5675C34.7876 27.2586 35.0965 26.9111 35.2896 26.4864C35.4826 26.0617 35.5984 25.5984 35.5598 25.0578H40.9266C40.9652 26.2161 40.7336 27.2586 40.2316 28.2625C39.7297 29.2277 39.0733 30.0772 38.1853 30.8107C37.2973 31.5443 36.332 32.0849 35.1737 32.471C34.054 32.8571 32.8185 33.0887 31.583 33.0887C29.8842 33.0887 28.3784 32.7798 27.0656 32.2007C25.7529 31.6215 24.7104 30.8107 23.8224 29.8069C22.9344 28.803 22.278 27.6061 21.8533 26.2548C21.4286 24.9034 21.1969 23.4362 21.1969 21.8918V21.2741C21.1969 19.7297 21.4286 18.2625 21.8533 16.9111C22.278 15.5598 22.9344 14.3629 23.8224 13.359C24.7104 12.3551 25.7915 11.5443 27.0656 10.9652C28.3398 10.386 29.8455 10.0771 31.5444 10.0771C32.8957 10.0771 34.1699 10.2702 35.3282 10.6949C36.4865 11.1196 37.4903 11.6602 38.3398 12.3938C39.1892 13.1273 39.8069 14.054 40.2703 15.0965C40.7336 16.1389 40.9652 17.3358 40.9266 18.6486H35.5598C35.5984 18.108 35.5212 17.5675 35.3282 17.1042C35.1351 16.6023 34.8649 16.1775 34.4788 15.8301C34.0927 15.4826 33.6679 15.2123 33.166 14.9806C32.6641 14.7876 32.0849 14.6718 31.4672 14.6718C30.5791 14.6718 29.8069 14.8648 29.2278 15.2123C28.6486 15.5984 28.1853 16.0617 27.8378 16.6795C27.4903 17.2972 27.2201 17.9922 27.1042 18.803C26.9498 19.5752 26.8726 20.4246 26.8726 21.2741V21.8918C26.8726 22.7412 26.9498 23.5907 27.0656 24.3629C27.2201 25.1737 27.4517 25.8687 27.7992 26.4478C28.1467 27.0656 28.61 27.5675 29.1892 27.915C29.7683 28.2625 30.5405 28.4555 31.4672 28.4555C32.0463 28.4941 32.5869 28.4169 33.0888 28.2625Z" fill="#E1F1FC"/>
<path d="M52.3553 36.2548C52.78 35.8687 53.1275 35.3667 53.3591 34.7876C53.5908 34.1698 53.7838 33.4749 53.8611 32.7413C53.9383 31.9691 54.0155 31.2355 54.0155 30.5019V27.1814C54.0155 26.4092 54.0927 25.637 54.2858 24.942C54.4788 24.247 54.7491 23.5907 55.1352 22.9729C55.5213 22.3552 55.9846 21.8146 56.5638 21.3127C57.1429 20.8107 57.8379 20.4247 58.6487 20.0772C57.9923 19.8069 57.4132 19.4594 56.9113 19.1119C56.4093 18.7258 55.9846 18.3011 55.5985 17.8378C55.058 17.1428 54.6333 16.4092 54.4016 15.5598C54.1313 14.7104 54.0155 13.8223 54.0155 12.8957V9.57523C54.0155 8.84164 54.0155 8.10806 53.9769 7.33586C53.9383 6.56366 53.8224 5.90727 53.6294 5.2895C53.4363 4.67174 53.0889 4.16982 52.6641 3.82233C52.2008 3.43623 51.5831 3.2818 50.7336 3.2818L51.4286 0.0771484C52.8958 0.0771484 54.1313 0.386048 55.0966 0.965198C56.1004 1.54435 56.9113 2.35514 57.529 3.359C58.1468 4.24703 58.5715 5.25091 58.8031 6.3706C59.0734 7.4903 59.1892 8.57137 59.1892 9.57523V12.8957C59.1892 13.6679 59.2665 14.3243 59.4209 14.9034C59.5753 15.4826 59.7684 15.9845 60.0773 16.4092C60.4634 16.9498 61.0425 17.3744 61.7375 17.6447C62.4711 17.915 63.3205 18.0308 64.3244 18.0308V22.0463C63.2047 22.0463 62.2394 22.2007 61.5058 22.5096C60.7723 22.8185 60.1931 23.359 59.807 24.054C59.614 24.4401 59.4595 24.8648 59.3437 25.4054C59.2279 25.9073 59.1892 26.4864 59.1892 27.1428V30.4633C59.1892 31.5443 59.0348 32.6254 58.7259 33.7837C58.417 34.942 57.9537 35.9459 57.336 36.8339C56.7182 37.7606 55.9074 38.5328 54.9421 39.1119C53.9383 39.6911 52.78 39.9999 51.4286 39.9999L50.7336 36.7567C51.39 36.7953 51.9306 36.6023 52.3553 36.2548Z" fill="#8BBA67"/>
</svg>
