<svg width="720" height="133" viewBox="0 0 720 133" fill="none" xmlns="http://www.w3.org/2000/svg">
    <path
        d="M716.321 86.1265C716.321 88.0134 716.572 89.3814 717.076 90.2305C717.61 91.0796 718.459 91.7243 719.623 92.1646L716.557 101.977C713.601 101.694 711.1 101.049 709.056 100.043C707.043 99.0047 705.455 97.448 704.292 95.3724C702.373 97.6682 699.92 99.3821 696.933 100.514C693.945 101.615 690.895 102.165 687.781 102.165C682.624 102.165 678.504 100.703 675.422 97.7782C672.371 94.822 670.846 91.0325 670.846 86.4095C670.846 80.9689 672.969 76.7704 677.214 73.8143C681.491 70.8581 687.498 69.38 695.234 69.38H701.98V67.4931C701.98 62.3669 698.678 59.8038 692.074 59.8038C690.47 59.8038 688.41 60.0397 685.894 60.5114C683.378 60.9517 680.862 61.5964 678.346 62.4455L674.903 52.5392C678.142 51.3127 681.507 50.3849 684.998 49.756C688.52 49.127 691.665 48.8125 694.433 48.8125C701.886 48.8125 707.389 50.3378 710.943 53.3883C714.528 56.4074 716.321 60.7788 716.321 66.5024V86.1265ZM692.923 91.5042C694.527 91.5042 696.209 91.0325 697.971 90.089C699.732 89.1141 701.068 87.7461 701.98 85.9849V77.8712H698.301C694.15 77.8712 691.099 78.5159 689.149 79.8053C687.199 81.0632 686.224 82.9187 686.224 85.3717C686.224 87.2901 686.806 88.7996 687.97 89.9003C689.165 90.9696 690.816 91.5042 692.923 91.5042Z"
        fill="#56033A" />
    <path
        d="M654.586 48.8125C658.139 48.8125 660.765 49.9761 662.464 52.3033C664.193 54.5991 665.058 58.3257 665.058 63.4833V100.561H652.274V65.1816C652.274 63.4204 652.101 62.1782 651.755 61.4549C651.441 60.7316 650.78 60.3699 649.774 60.3699C648.988 60.3699 648.17 60.6058 647.321 61.0775C646.503 61.5178 645.591 62.3669 644.585 63.6249V100.561H634.113V65.1816C634.113 63.4204 633.94 62.1782 633.594 61.4549C633.279 60.7316 632.619 60.3699 631.612 60.3699C630.826 60.3699 630.008 60.6058 629.159 61.0775C628.342 61.5178 627.43 62.3669 626.423 63.6249V100.561H613.451V50.4636H624.395L625.385 55.3224C626.958 53.1839 628.546 51.5643 630.15 50.4636C631.754 49.3629 633.657 48.8125 635.858 48.8125C637.745 48.8125 639.349 49.3 640.67 50.2749C642.022 51.2183 642.981 52.7121 643.547 54.7563C645.057 52.9952 646.723 51.5643 648.547 50.4636C650.372 49.3629 652.384 48.8125 654.586 48.8125Z"
        fill="#56033A" />
    <path
        d="M572.141 91.6456C572.141 89.7272 572.613 87.9818 573.556 86.4094C574.5 84.8055 575.773 83.5318 577.377 82.5883C578.981 81.6134 580.742 81.126 582.661 81.126C584.611 81.126 586.372 81.6134 587.944 82.5883C589.548 83.5318 590.822 84.8055 591.765 86.4094C592.709 87.9818 593.18 89.7272 593.18 91.6456C593.18 93.5325 592.709 95.2779 591.765 96.8818C590.822 98.4857 589.548 99.7594 587.944 100.703C586.372 101.678 584.611 102.165 582.661 102.165C580.742 102.165 578.981 101.678 577.377 100.703C575.773 99.7594 574.5 98.4857 573.556 96.8818C572.613 95.2779 572.141 93.5325 572.141 91.6456Z"
        fill="#56033A" />
    <path
        d="M524.464 91.5042C526.949 91.5042 528.946 91.1111 530.455 90.3249C531.996 89.5386 532.767 88.3593 532.767 86.7869C532.767 85.7176 532.468 84.8213 531.87 84.098C531.273 83.3747 530.125 82.6828 528.427 82.0224C526.728 81.362 524.213 80.5757 520.879 79.6637C516.287 78.4372 512.545 76.6761 509.652 74.3803C506.79 72.0846 505.359 68.7196 505.359 64.2853C505.359 59.8196 507.214 56.1243 510.925 53.1996C514.668 50.2749 520.061 48.8125 527.106 48.8125C531.572 48.8125 535.456 49.3943 538.758 50.5579C542.091 51.6901 544.969 53.1367 547.39 54.8978L541.446 63.672C539.371 62.3826 537.138 61.3606 534.748 60.6058C532.358 59.8196 529.952 59.4265 527.53 59.4265C522.75 59.4265 520.36 60.7159 520.36 63.2947C520.36 64.1438 520.659 64.8828 521.256 65.5118C521.885 66.1093 523.049 66.7383 524.747 67.3987C526.445 68.0277 528.93 68.8139 532.201 69.7574C535.44 70.6694 538.254 71.7229 540.645 72.918C543.066 74.113 544.937 75.7169 546.258 77.7296C547.579 79.7109 548.239 82.3369 548.239 85.6076C548.239 89.2556 547.154 92.3219 544.984 94.8063C542.814 97.2593 539.937 99.0991 536.352 100.326C532.767 101.552 528.836 102.165 524.558 102.165C519.715 102.165 515.438 101.473 511.727 100.09C508.016 98.706 504.856 96.8819 502.246 94.6176L509.746 86.2208C511.696 87.7303 513.897 88.9883 516.35 89.9947C518.835 91.001 521.539 91.5042 524.464 91.5042Z"
        fill="#56033A" />
    <path
        d="M448.245 100.561V90.5598H454.849V60.369H448.245V50.4627H466.218L468.954 61.737C470.747 57.4286 473.027 54.2208 475.794 52.1137C478.593 50.0067 482.005 48.9531 486.031 48.9531C487.729 48.9531 489.239 49.0946 490.559 49.3777C491.88 49.6293 493.122 49.9909 494.286 50.4627L491.503 71.4075H482.163V62.1616C479.332 62.6648 476.848 64.2058 474.709 66.7846C472.571 69.3319 470.92 72.4768 469.756 76.2192V90.5598H479.662V100.561H448.245Z"
        fill="#56033A" />
    <path
        d="M404.105 79.8524C404.608 83.9408 405.944 86.8812 408.114 88.6738C410.284 90.4349 412.957 91.3155 416.134 91.3155C418.429 91.3155 420.647 90.9381 422.785 90.1833C424.924 89.4286 426.984 88.4222 428.965 87.1643L434.956 95.278C432.597 97.2908 429.735 98.9418 426.37 100.231C423.037 101.521 419.231 102.165 414.954 102.165C409.231 102.165 404.435 101.033 400.567 98.7689C396.698 96.4731 393.789 93.3282 391.84 89.3342C389.89 85.3402 388.915 80.7487 388.915 75.5597C388.915 70.6222 389.858 66.1408 391.745 62.1153C393.632 58.0584 396.384 54.8349 400 52.4448C403.649 50.0233 408.099 48.8125 413.35 48.8125C418.131 48.8125 422.266 49.8346 425.757 51.8788C429.279 53.9229 432 56.8634 433.918 60.7001C435.868 64.5369 436.843 69.1441 436.843 74.5219C436.843 75.371 436.811 76.283 436.748 77.2579C436.717 78.2328 436.654 79.0977 436.56 79.8524H404.105ZM413.35 58.8132C410.677 58.8132 408.523 59.7724 406.888 61.6908C405.252 63.6091 404.262 66.6754 403.916 70.8895H422.313C422.282 67.2415 421.574 64.3167 420.191 62.1153C418.807 59.9139 416.527 58.8132 413.35 58.8132Z"
        fill="#56033A" />
    <path
        d="M363.079 29L377.985 30.5567V100.562H364.777L364.022 95.0424C362.638 96.9922 360.799 98.6747 358.503 100.09C356.207 101.474 353.424 102.166 350.153 102.166C346.002 102.166 342.558 101.049 339.822 98.8163C337.118 96.5834 335.089 93.47 333.737 89.476C332.416 85.4505 331.756 80.7489 331.756 75.3712C331.756 70.2136 332.558 65.6378 334.161 61.6438C335.765 57.6498 338.061 54.5207 341.049 52.2564C344.036 49.9606 347.59 48.8127 351.71 48.8127C356.207 48.8127 359.997 50.3537 363.079 53.4357V29ZM355.72 59.7097C353.141 59.7097 351.065 60.9362 349.493 63.3892C347.92 65.8108 347.134 69.8362 347.134 75.4655C347.134 79.5853 347.464 82.7931 348.125 85.0889C348.785 87.3532 349.697 88.9413 350.861 89.8534C352.024 90.7654 353.361 91.2214 354.87 91.2214C356.537 91.2214 358.047 90.7025 359.399 89.6647C360.783 88.6269 362.009 87.2117 363.079 85.4191V63.8138C362.041 62.5244 360.94 61.518 359.776 60.7947C358.613 60.0714 357.261 59.7097 355.72 59.7097Z"
        fill="#56033A" />
    <path
        d="M299.692 48.8125C304.849 48.8125 309.236 49.9132 312.853 52.1146C316.47 54.316 319.237 57.4137 321.155 61.4077C323.074 65.3703 324.033 70.0247 324.033 75.371C324.033 83.7364 321.895 90.2934 317.617 95.0422C313.34 99.7909 307.365 102.165 299.692 102.165C292.018 102.165 286.043 99.8224 281.766 95.1365C277.489 90.4507 275.35 83.8936 275.35 75.4653C275.35 70.1505 276.31 65.4961 278.228 61.5021C280.178 57.5081 282.961 54.3947 286.578 52.1618C290.226 49.9289 294.597 48.8125 299.692 48.8125ZM299.692 59.8038C296.641 59.8038 294.377 61.0618 292.899 63.5777C291.452 66.0621 290.729 70.0247 290.729 75.4653C290.729 81.0003 291.452 85.01 292.899 87.4945C294.377 89.9789 296.641 91.2212 299.692 91.2212C302.742 91.2212 304.991 89.9789 306.437 87.4945C307.916 85.01 308.655 80.9689 308.655 75.371C308.655 69.9618 307.916 66.015 306.437 63.5305C304.991 61.0461 302.742 59.8038 299.692 59.8038Z"
        fill="#56033A" />
    <path
        d="M248.568 33.5283C253.254 33.5283 257.232 34.1573 260.503 35.4152C263.805 36.6417 266.824 38.3872 269.56 40.6515L261.965 49.8031C260.173 48.325 258.192 47.1614 256.022 46.3122C253.852 45.4317 251.493 44.9914 248.946 44.9914C246.21 44.9914 243.709 45.7776 241.445 47.35C239.181 48.891 237.372 51.344 236.02 54.7091C234.668 58.0426 233.992 62.3826 233.992 67.7288C233.992 75.591 235.407 81.3147 238.237 84.8999C241.099 88.4536 244.763 90.2304 249.229 90.2304C252.499 90.2304 255.22 89.6172 257.39 88.3907C259.56 87.1642 261.557 85.8276 263.381 84.381L270.409 93.3439C267.956 95.7654 264.937 97.841 261.352 99.5707C257.767 101.3 253.443 102.165 248.38 102.165C242.467 102.165 237.215 100.86 232.624 98.2499C228.064 95.6082 224.478 91.74 221.868 86.6453C219.289 81.5191 218 75.2137 218 67.7288C218 60.4327 219.337 54.2373 222.01 49.1426C224.714 44.0479 228.378 40.1797 233.001 37.538C237.624 34.8649 242.813 33.5283 248.568 33.5283Z"
        fill="#56033A" />
    <path
        d="M162.229 11.0276L123.839 33.25C112.338 13.3668 90.8928 0 66.3362 0C41.7796 0 20.3342 13.3668 8.88927 33.25C3.22236 43.0523 0 54.3585 0 66.5C0 78.6415 3.22236 89.9477 8.88927 99.75C20.3342 119.633 41.7796 133 66.3362 133C90.8928 133 112.338 119.633 123.783 99.75L162.451 122.139C171.841 105.876 177.23 86.9401 177.23 66.7785C177.23 46.4497 171.73 27.402 162.229 11.0276Z"
        fill="url(#paint0_radial_193_100)" />
    <path fill-rule="evenodd" clip-rule="evenodd"
        d="M169.775 6.59473C180.047 24.2422 186 44.7865 186 66.7027C186 88.4292 180.171 108.858 170.008 126.405L155.153 117.796C163.842 102.795 168.832 85.3261 168.832 66.7027C168.832 47.9346 163.742 30.3583 154.939 15.2354L169.775 6.59473Z"
        fill="#0D4266" />
    <path
        d="M107.754 90.3932L123.878 99.75C112.424 119.633 90.9626 133 66.3871 133C41.8117 133 20.3498 119.633 8.8961 99.75C3.22484 89.9477 0 78.5858 0 66.5C0 54.4142 3.22484 43.0523 8.8961 33.25C20.3498 13.3668 41.8117 0 66.3871 0C90.9626 0 112.424 13.3668 123.878 33.25L107.754 42.5511C107.142 42.8853 106.308 42.7182 105.975 42.1055C105.919 42.0498 105.919 41.9941 105.864 41.9384C105.864 41.9384 105.864 41.9384 105.864 41.8827C105.752 41.7157 105.641 41.5486 105.53 41.3258C105.474 41.2144 105.419 41.103 105.308 40.9916C105.252 40.8802 105.196 40.8245 105.141 40.7131C105.085 40.6018 105.03 40.4904 104.918 40.4347C104.863 40.3233 104.752 40.2119 104.696 40.0448C104.64 39.9891 104.585 39.8777 104.529 39.822C104.474 39.7106 104.362 39.5992 104.307 39.4879C104.251 39.3765 104.196 39.3208 104.084 39.2094C103.973 39.098 103.918 38.9866 103.806 38.8752C103.751 38.8195 103.695 38.7638 103.64 38.7081C103.528 38.541 103.417 38.4296 103.306 38.2626C103.25 38.2069 103.195 38.1512 103.195 38.0955C103.084 37.9841 102.972 37.817 102.917 37.7056C102.861 37.6499 102.806 37.5385 102.75 37.4828C102.639 37.3714 102.528 37.26 102.472 37.093C102.416 37.0373 102.361 36.9259 102.305 36.8702C102.194 36.7588 102.138 36.6474 102.027 36.536C101.972 36.4246 101.86 36.3689 101.805 36.2575C101.749 36.1461 101.638 36.0348 101.582 35.9791C101.527 35.8677 101.416 35.812 101.36 35.7006C101.304 35.6449 101.193 35.5335 101.138 35.4778C101.026 35.3664 100.915 35.255 100.804 35.1436C100.748 35.0879 100.693 35.0322 100.637 34.9765C100.526 34.8652 100.47 34.7538 100.359 34.6424C100.248 34.531 100.192 34.4753 100.081 34.3639C99.9699 34.2525 99.8587 34.1411 99.8031 34.0297C99.7475 33.974 99.7475 33.974 99.6919 33.9183C99.5807 33.807 99.4695 33.6399 99.3027 33.5285C99.1915 33.4171 99.1359 33.3614 99.0247 33.25C98.9691 33.1943 98.9135 33.1386 98.8023 33.0272C98.6911 32.9158 98.5799 32.8044 98.4131 32.693C98.3575 32.6374 98.3019 32.5817 98.2463 32.526C98.0795 32.4146 97.9683 32.2475 97.8015 32.1361C97.7459 32.0804 97.7459 32.0804 97.7459 32.0804C97.5791 31.969 97.4679 31.8019 97.3011 31.6905C97.2455 31.6348 97.2455 31.6348 97.1899 31.5791C97.0231 31.4678 96.9119 31.3007 96.7451 31.1893C96.6895 31.1336 96.6895 31.1336 96.6339 31.0779C96.5227 31.0222 96.4671 30.9108 96.3559 30.8551C96.2447 30.7437 96.1335 30.6323 96.0223 30.5766C95.8555 30.4095 95.6331 30.2982 95.4663 30.1311C95.2995 29.964 95.1327 29.8526 94.9103 29.6855C94.7435 29.5184 94.5211 29.407 94.2987 29.2399C94.0763 29.0729 93.9095 28.9615 93.6871 28.7944H93.6314C93.2422 28.5159 92.853 28.2374 92.4638 27.959C92.297 27.8476 92.0746 27.6805 91.9078 27.5691C91.741 27.4577 91.5186 27.3463 91.3518 27.1792C91.2406 27.1235 91.0738 27.0121 90.9626 26.9564C90.8514 26.9008 90.7402 26.7894 90.5734 26.7337C90.351 26.6223 90.1286 26.4552 89.9062 26.3438C89.5726 26.1767 89.239 25.9539 88.9054 25.7868C88.7942 25.7312 88.683 25.6755 88.5718 25.6198C88.4606 25.5641 88.3494 25.5084 88.2382 25.4527C88.127 25.397 88.0158 25.3413 87.9046 25.2856C87.6822 25.1742 87.4598 25.0628 87.2374 24.9514C87.1262 24.8957 87.015 24.84 86.9038 24.7843C86.5702 24.6173 86.2366 24.4502 85.903 24.2831C85.7918 24.2274 85.6806 24.1717 85.5694 24.116C85.4582 24.0603 85.347 24.0046 85.2358 23.9489C85.1246 23.8932 85.0134 23.8375 84.9022 23.7818C84.791 23.7261 84.6798 23.6704 84.6241 23.6704C84.3461 23.559 84.0125 23.392 83.7345 23.2806C83.6233 23.2249 83.5677 23.2249 83.4565 23.1692C83.3453 23.1135 83.2341 23.0578 83.1229 23.0578C82.9005 23.0021 82.6781 22.8907 82.5113 22.835C82.0109 22.6679 81.5661 22.5008 81.0657 22.3338C80.8989 22.2781 80.7321 22.2224 80.5097 22.1667C80.2317 22.111 80.0093 21.9996 79.7313 21.9439C79.4533 21.8882 79.1753 21.7768 78.8973 21.7211C78.7861 21.7211 78.7305 21.6654 78.6193 21.6654C78.1745 21.554 77.7853 21.4426 77.3405 21.3312C77.1737 21.2755 76.9513 21.2198 76.7845 21.2198C76.6177 21.1642 76.5065 21.1642 76.3397 21.1085C76.2285 21.1085 76.1173 21.0528 75.9505 21.0528C75.8393 21.0528 75.7281 20.9971 75.6169 20.9971C75.45 20.9414 75.3388 20.9414 75.172 20.8857C75.0608 20.8857 74.9496 20.83 74.8384 20.83C74.7272 20.83 74.6716 20.7743 74.5604 20.7743C74.4492 20.7743 74.3936 20.7186 74.2824 20.7186C74.1712 20.7186 74.1156 20.6629 74.0044 20.6629C73.8932 20.6629 73.782 20.6072 73.6708 20.6072C73.5596 20.6072 73.4484 20.5515 73.3372 20.5515C72.6144 20.4401 71.8916 20.3287 71.1688 20.273C71.0576 20.273 70.9464 20.273 70.8352 20.2173C70.6128 20.2173 70.3348 20.1616 70.1124 20.1616C70.0568 20.1616 69.9456 20.1616 69.89 20.1616C69.7788 20.1616 69.6676 20.1616 69.612 20.1616C69.5008 20.1616 69.334 20.1616 69.2228 20.1616C69.1116 20.1616 69.056 20.1616 68.9448 20.1616C68.778 20.1616 68.6112 20.1616 68.4444 20.1616C68.1664 20.1616 67.8884 20.1616 67.666 20.1616C67.2768 20.1616 66.8876 20.1616 66.4427 20.1616C49.2622 20.1616 34.25 29.5184 26.1879 43.4422C22.2402 50.2927 19.9606 58.2571 19.9606 66.7228C19.9606 75.1884 22.2402 83.1528 26.1879 90.0034C34.25 103.927 49.2622 113.284 66.4427 113.284C66.832 113.284 67.2212 113.284 67.666 113.284C67.944 113.284 68.222 113.284 68.4444 113.284C68.6112 113.284 68.778 113.284 68.9448 113.284C69.056 113.284 69.1116 113.284 69.2228 113.284C69.334 113.284 69.5008 113.284 69.612 113.284C70.0568 113.228 70.446 113.228 70.8908 113.173C71.002 113.173 71.1132 113.173 71.2244 113.117C71.9472 113.061 72.67 112.95 73.3928 112.838C73.504 112.838 73.6152 112.783 73.7264 112.783C73.8376 112.783 73.9488 112.727 74.06 112.727C74.1712 112.727 74.2268 112.671 74.338 112.671C74.4492 112.671 74.5048 112.616 74.616 112.616C74.7272 112.616 74.7828 112.56 74.894 112.56C75.0052 112.56 75.1164 112.504 75.2276 112.504C75.3944 112.504 75.5057 112.448 75.6725 112.393C75.7837 112.393 75.8949 112.337 76.0061 112.337C76.1173 112.337 76.2285 112.281 76.3953 112.281C76.5621 112.226 76.6733 112.226 76.8401 112.17C77.0069 112.114 77.2293 112.059 77.3961 112.059C77.8409 111.947 78.2301 111.836 78.6749 111.724C78.7861 111.724 78.8417 111.669 78.9529 111.669C79.2309 111.613 79.5089 111.502 79.7869 111.446C80.0649 111.39 80.2873 111.279 80.5653 111.223C80.7321 111.167 80.8989 111.112 81.1213 111.056C81.6217 110.889 82.1221 110.722 82.5669 110.555C82.7893 110.499 83.0117 110.388 83.1785 110.332C83.2897 110.276 83.4009 110.221 83.5121 110.221C83.6233 110.165 83.6789 110.165 83.7901 110.109C84.1237 109.998 84.4018 109.887 84.6798 109.719C84.791 109.664 84.9022 109.608 84.9578 109.608C85.069 109.552 85.1802 109.497 85.2914 109.441C85.4026 109.385 85.5138 109.33 85.625 109.274C85.7362 109.218 85.8474 109.162 85.9586 109.107C86.2922 108.94 86.6258 108.773 86.9594 108.606C87.0706 108.55 87.1818 108.494 87.293 108.438C87.5154 108.327 87.7378 108.216 87.9602 108.104C88.0714 108.049 88.1826 107.993 88.2938 107.937C88.405 107.881 88.5162 107.826 88.6274 107.77C88.7386 107.714 88.8498 107.659 88.961 107.603C89.2946 107.436 89.6282 107.213 89.9618 107.046C90.1842 106.935 90.4066 106.768 90.629 106.656C90.7402 106.6 90.8514 106.489 91.0182 106.433C91.1294 106.378 91.2962 106.266 91.4074 106.211C91.5742 106.099 91.7966 105.988 91.9634 105.821C92.1302 105.709 92.3526 105.542 92.5194 105.431C92.9086 105.152 93.2978 104.874 93.6871 104.595H93.7427C93.9651 104.428 94.1319 104.317 94.3543 104.15C94.5767 103.983 94.7435 103.871 94.9659 103.704C95.1327 103.537 95.2995 103.426 95.5219 103.259C95.6887 103.092 95.9111 102.98 96.0779 102.813C96.1891 102.702 96.3003 102.59 96.4115 102.535C96.5227 102.479 96.5783 102.368 96.6895 102.312C96.7451 102.256 96.7451 102.256 96.8007 102.201C96.9675 102.089 97.0787 101.922 97.2455 101.811C97.3011 101.755 97.3011 101.755 97.3567 101.699C97.5235 101.588 97.6347 101.421 97.8015 101.309C97.8571 101.309 97.8571 101.254 97.8571 101.254C98.0239 101.142 98.1351 100.975 98.3019 100.864C98.3575 100.808 98.4131 100.753 98.4687 100.697C98.5799 100.585 98.6911 100.474 98.8579 100.363C98.9135 100.307 98.9691 100.251 99.0803 100.14C99.1915 100.028 99.2471 99.9728 99.3583 99.8614C99.4695 99.75 99.6363 99.5829 99.7475 99.4715C99.8031 99.4158 99.8031 99.4158 99.8587 99.3601C99.9699 99.2487 100.081 99.1374 100.137 99.026C100.248 98.9146 100.304 98.8589 100.415 98.7475C100.526 98.6361 100.637 98.5247 100.693 98.4133C100.748 98.3576 100.804 98.3019 100.86 98.2462C100.971 98.1348 101.082 98.0234 101.193 97.9121C101.249 97.8564 101.36 97.745 101.416 97.6893C101.471 97.5779 101.582 97.5222 101.638 97.4108C101.749 97.2994 101.805 97.2437 101.86 97.1323C101.916 97.0209 102.027 96.9652 102.083 96.8538C102.194 96.7425 102.25 96.6311 102.361 96.5197C102.416 96.464 102.472 96.3526 102.528 96.2969C102.639 96.1855 102.75 96.0741 102.806 95.907C102.861 95.8513 102.917 95.7399 102.972 95.6843C103.084 95.5729 103.195 95.4058 103.25 95.2944C103.306 95.2387 103.362 95.183 103.362 95.1273C103.473 94.9602 103.584 94.8488 103.695 94.6817C103.751 94.626 103.806 94.5703 103.862 94.5147C103.973 94.4033 104.029 94.2919 104.14 94.1805C104.196 94.0691 104.251 94.0134 104.362 93.902C104.418 93.7906 104.529 93.6792 104.585 93.5678C104.64 93.5121 104.696 93.4008 104.752 93.3451C104.863 93.2337 104.918 93.1223 104.974 92.9552C105.03 92.8438 105.085 92.7324 105.196 92.6767C105.252 92.5653 105.308 92.5096 105.363 92.3982C105.419 92.2868 105.474 92.1755 105.586 92.0641C105.697 91.897 105.808 91.7299 105.919 91.5071C105.919 91.5071 105.919 91.5071 105.919 91.4514C105.975 91.3957 105.975 91.34 106.03 91.2843C106.308 90.8945 106.698 90.6717 107.142 90.6717C107.198 90.6717 107.198 90.6717 107.254 90.6717H107.309C107.309 90.6717 107.309 90.6717 107.365 90.6717H107.42H107.476H107.532C107.532 90.6717 107.587 90.6717 107.587 90.7274C107.587 90.7274 107.643 90.7274 107.643 90.7831C107.698 90.3932 107.698 90.3932 107.754 90.3932Z"
        fill="#0D4266" />
    <path
        d="M90.2592 66.4999C90.2592 71.3346 88.9844 75.8915 86.712 79.7816C82.1117 87.7284 73.5763 93.0632 63.7661 93.0632C53.9559 93.0632 45.4204 87.7284 40.8201 79.7816C38.5477 75.8915 37.2729 71.3346 37.2729 66.4999C37.2729 61.6651 38.5477 57.1082 40.8201 53.2182C45.4204 45.2714 53.9559 39.9365 63.7661 39.9365C73.5763 39.9365 82.1117 45.2714 86.712 53.2182C88.9844 57.1082 90.2592 61.6651 90.2592 66.4999Z"
        fill="#56033A" />
    <defs>
        <radialGradient id="paint0_radial_193_100" cx="0" cy="0" r="1" gradientUnits="userSpaceOnUse"
            gradientTransform="translate(64.8625 66.3168) rotate(-0.52813) scale(181.064 181.511)">
            <stop offset="1.01661e-07" stop-color="#156EAB" stop-opacity="0.29" />
            <stop offset="0.7434" stop-color="#156EAB" stop-opacity="0" />
        </radialGradient>
    </defs>
</svg>