<svg width="688" height="104" viewBox="0 0 688 104" fill="none" xmlns="http://www.w3.org/2000/svg">
<path d="M24.3 101.3C21.7 99.8 19.7 97.8 18.1 95.5C16.4 93.1 15.2 90.4 14.4 87.5C13.6 84.6 13.3 81.7 13.3 78.9V70.3C13.3 65.6 12.2 62.2 10 60.2C7.8 58.2 4.5 57.1 0 57.1V46.5C4.5 46.5 7.8 45.5 10 43.4C12.2 41.4 13.3 37.9 13.3 33.2V24.6C13.3 21.6 13.7 18.5 14.6 15.3C15.4 12.1 16.8 9.3 18.6 7C20.1 5 22.1 3.3 24.6 2C27 0.7 30 0 33.4 0L35.2 8.3C33 8.2 31.4 8.7 30.2 9.7C29 10.7 28.2 12 27.7 13.5C27.2 15.1 26.9 16.9 26.8 18.8C26.7 20.8 26.7 22.7 26.7 24.6V33.2C26.7 37.4 25.7 41.1 23.6 44.4C21.5 47.6 18.3 50.1 14 51.8C18.4 53.5 21.6 55.9 23.6 59.2C25.6 62.4 26.7 66.1 26.7 70.3V79C26.7 80.9 26.8 82.8 27 84.8C27.2 86.8 27.7 88.5 28.3 90.1C28.9 91.7 29.8 93 30.9 93.9C32 94.9 33.4 95.3 35.2 95.3L33.4 103.7C29.9 103.6 26.9 102.9 24.3 101.3Z" fill="#8BBA67"/>
<path d="M85.7 73.2C87 72.8 88.2 72.2 89.1 71.4C90.1 70.6 90.9 69.7 91.4 68.6C91.9 67.5 92.2 66.3 92.1 64.9H106C106.1 67.9 105.5 70.6 104.2 73.2C102.9 75.7 101.2 77.9 98.9 79.8C96.7 81.6 94.1 83.1 91.1 84.1C88.2 85.1 85 85.7 81.8 85.7C77.4 85.7 73.5 84.9 70.1 83.4C66.7 81.9 64 79.8 61.7 77.2C59.4 74.6 57.7 71.5 56.6 68C55.5 64.5 54.9 60.7 54.9 56.7V55.1C54.9 51.1 55.5 47.3 56.6 43.8C57.7 40.3 59.4 37.2 61.7 34.6C64 32 66.8 29.9 70.1 28.4C73.4 26.9 77.3 26.1 81.7 26.1C85.2 26.1 88.5 26.6 91.5 27.7C94.5 28.8 97.1 30.2 99.3 32.1C101.5 34 103.1 36.4 104.3 39.1C105.5 41.8 106.1 44.9 106 48.3H92.1C92.2 46.9 92 45.5 91.5 44.3C91 43 90.3 41.9 89.3 41C88.3 40.1 87.2 39.4 85.9 38.8C84.6 38.3 83.1 38 81.5 38C79.2 38 77.2 38.5 75.7 39.4C74.2 40.4 73 41.6 72.1 43.2C71.2 44.8 70.5 46.6 70.2 48.7C69.8 50.7 69.6 52.9 69.6 55.1V56.7C69.6 58.9 69.8 61.1 70.1 63.1C70.5 65.2 71.1 67 72 68.5C72.9 70.1 74.1 71.4 75.6 72.3C77.1 73.2 79.1 73.7 81.5 73.7C83 73.9 84.4 73.7 85.7 73.2Z" fill="#3D9EE0"/>
<path d="M121 43.8C122.2 40.3 124 37.2 126.3 34.6C128.6 32 131.4 29.9 134.7 28.5C138 27 141.9 26.3 146.2 26.3C150.5 26.3 154.3 27 157.7 28.5C161.1 30 163.9 32 166.2 34.6C168.5 37.2 170.2 40.3 171.4 43.8C172.6 47.3 173.2 51.2001 173.2 55.4001V56.5C173.2 60.7001 172.6 64.6 171.4 68.1C170.2 71.6 168.5 74.7001 166.2 77.3001C163.9 79.9001 161.1 82 157.7 83.4001C154.3 84.9001 150.5 85.6 146.3 85.6C142 85.6 138.2 84.9001 134.8 83.4001C131.4 81.9001 128.6 79.9001 126.3 77.3001C124 74.7001 122.2 71.6 121 68.1C119.8 64.6 119.2 60.7001 119.2 56.5V55.4001C119.2 51.2001 119.8 47.4 121 43.8ZM134.7 63.3C135.2 65.4 135.9 67.2001 136.9 68.8001C137.9 70.4001 139.2 71.6 140.7 72.6C142.3 73.5 144.2 74 146.4 74C148.6 74 150.4 73.5 152 72.6C153.6 71.7 154.8 70.4001 155.8 68.8001C156.8 67.2001 157.5 65.4 157.9 63.3C158.4 61.2001 158.6 58.9001 158.6 56.5V55.4001C158.6 53.1001 158.4 50.9 157.9 48.8C157.4 46.7 156.7 44.9 155.8 43.3C154.8 41.7 153.5 40.5 152 39.5C150.5 38.5 148.6 38.1 146.3 38.1C144.1 38.1 142.2 38.6 140.7 39.5C139.1 40.4 137.9 41.7 136.9 43.3C135.9 44.9 135.2 46.7 134.7 48.8C134.2 50.9 134 53.1001 134 55.4001V56.5C134 58.9001 134.2 61.2001 134.7 63.3Z" fill="#3D9EE0"/>
<path d="M186.3 43.5999C187.3 40 188.8 36.8999 190.7 34.2999C192.6 31.6999 195 29.6999 197.8 28.2999C200.6 26.9 203.7 26.2 207.3 26.2C210.3 26.2 212.9 26.6999 215.2 27.7999C217.5 28.9 219.5 30.4 221.3 32.4V3.19995H236.1V84.5H222.8L222.1 78.5C220.3 80.7 218.2 82.5 215.7 83.7C213.3 84.8999 210.4 85.6 207.2 85.6C203.7 85.6 200.6 84.9 197.8 83.4C195 81.9 192.7 79.9 190.8 77.3C188.9 74.7 187.4 71.7 186.4 68.1C185.4 64.6 184.9 60.7 184.9 56.5V55.4C184.8 51.2 185.3 47.1999 186.3 43.5999ZM200.1 63.2999C200.5 65.3999 201.2 67.2 202.1 68.7C203 70.2999 204.2 71.5 205.6 72.4C207 73.3 208.8 73.7 210.9 73.7C213.4 73.7 215.6 73.2 217.2 72.1C218.9 71 220.2 69.5 221.2 67.6V44.2999C220.2 42.3999 218.9 40.7999 217.2 39.7999C215.5 38.7 213.5 38.2 211 38.2C208.9 38.2 207.1 38.6999 205.7 39.5999C204.2 40.5 203 41.7 202.1 43.2999C201.2 44.8999 200.5 46.7 200.1 48.7999C199.7 50.8999 199.5 53.1999 199.5 55.5999V56.7C199.5 59 199.7 61.2 200.1 63.2999Z" fill="#3D9EE0"/>
<path d="M267.2 83.5C263.6 82.1 260.5 80.1 257.9 77.6C255.3 75.1 253.3 72.2001 251.9 68.8001C250.5 65.4001 249.8 61.8 249.8 58V55.9001C249.8 51.5001 250.5 47.5001 251.9 43.9001C253.3 40.3001 255.2 37.2 257.7 34.6C260.2 32 263.1 30 266.5 28.5C269.9 27.1 273.6 26.3 277.6 26.3C281.7 26.3 285.4 27 288.6 28.3C291.8 29.7 294.6 31.6 296.8 34C299 36.5 300.7 39.4001 301.9 42.9001C303.1 46.4001 303.6 50.2001 303.6 54.4001V60.6H264.7V60.8C265.2 63.1 265.8 64.9001 266.6 66.3001C267.4 67.7001 268.4 69 269.7 70.1C271 71.3 272.6 72.2001 274.3 72.8001C276 73.4001 277.9 73.8001 280 73.8001C282.9 73.8001 285.7 73.3 288.4 72.2C291.1 71.1 293.3 69.5001 295 67.3001L302.4 75.2C300.5 77.8 297.6 80.2001 293.5 82.4001C289.4 84.6001 284.6 85.6 279.1 85.6C274.8 85.6 270.8 84.9001 267.2 83.5ZM272.9 39C271.5 39.6 270.3 40.4 269.3 41.5C268.2 42.6 267.4 43.9001 266.7 45.4001C266 46.9001 265.5 48.6 265.1 50.5H289.2V49.3C289.2 47.7 288.9 46.3001 288.4 44.9001C287.8 43.5001 287.1 42.3 286.1 41.3C285.1 40.3 283.9 39.5001 282.5 38.9001C281.1 38.3001 279.4 38 277.5 38C275.8 38.1 274.3 38.4 272.9 39Z" fill="#3D9EE0"/>
<path d="M363.8 26.7C365.7 27 367.2 27.3 368.4 27.7L366.2 42.4C364.3 41.9 362.3 41.6 360.2 41.4C358.2 41.2 356.2 41.0999 354.4 41.0999C352.5 41.0999 350.8 41.2999 349.2 41.5999C347.7 41.8999 346.3 42.3999 345.1 43.0999C343.7 43.8999 342.4 44.8999 341.4 46.0999C340.4 47.2999 339.5 48.6999 338.9 50.2999V84.6999H324.2V27.2999H337.9L338.5 35.4L338.6 36.7C340.9 33.5 343.7 30.9 347 29C350.2 27.1 353.8 26.2 357.6 26.2C359.9 26.2 361.9 26.4 363.8 26.7Z" fill="#3D9EE0"/>
<path d="M417.9 66.5C417.5 65.8 416.8 65.2 415.8 64.6C414.7 64 413.3 63.5 411.6 63C409.9 62.5 407.7 62 405 61.5C401.6 60.8 398.6 60 395.8 59C393 58 390.7 56.8 388.7 55.3C386.7 53.9 385.2 52.2 384.1 50.4C383 48.5 382.4 46.4 382.4 43.9C382.4 41.5 383 39.3 384.1 37.1C385.2 34.9 386.9 33.1 389 31.4C391.1 29.8 393.7 28.5 396.7 27.5C399.7 26.5 403.2 26.1 407 26.1C411 26.1 414.6 26.6 417.7 27.5C420.9 28.4 423.6 29.7 425.8 31.3C428 33 429.7 34.9 430.8 37.2C432 39.5 432.5 41.9 432.5 44.6H417.8C417.8 43.6 417.6 42.8 417.3 41.9C417 41.1 416.5 40.3 415.9 39.6C415 38.7 413.8 38 412.3 37.5C410.8 37 409 36.7 406.9 36.7C405.1 36.7 403.5 36.9 402.2 37.2C400.9 37.6 399.8 38 398.9 38.7C398.1 39.3 397.5 39.9 397.1 40.7C396.7 41.5 396.5 42.3 396.5 43.1C396.5 43.9 396.7 44.7 397 45.5C397.4 46.2 398 46.9 398.9 47.4C399.8 48 401 48.5 402.6 49C404.2 49.5 406.1 49.9 408.5 50.2C412 50.8 415.2 51.5 418.1 52.4C421.1 53.3 423.6 54.4 425.8 55.8C428 57.2 429.6 58.9 430.9 60.9C432.1 62.9 432.7 65.3 432.7 68C432.7 70.5 432.1 72.9 430.9 75C429.7 77.1 428 79 425.7 80.5C423.4 82.1 420.7 83.3 417.5 84.1C414.3 85 410.8 85.4 406.9 85.4C402.6 85.4 398.8 84.8 395.5 83.7C392.2 82.6 389.4 81.1 387.2 79.3C385 77.5 383.3 75.4 382.1 73.1C381 70.8 380.4 68.5 380.4 66.1H394.4C394.5 67.7 394.9 69 395.7 70.1C396.4 71.2 397.4 72.1 398.6 72.8C399.8 73.5 401.1 74 402.6 74.3C404.1 74.6 405.6 74.8 407.2 74.8C409.1 74.8 410.8 74.6 412.2 74.3C413.6 74 414.8 73.5 415.7 72.9C416.6 72.3 417.2 71.7 417.7 70.9C418.1 70.2 418.4 69.3 418.4 68.5C418.5 68 418.3 67.2 417.9 66.5Z" fill="#3D9EE0"/>
<path d="M464.2 69.1C466 67.2 468.5 66.3 471.7 66.3C474.9 66.3 477.4 67.2 479.2 69.1C481 71 481.9 73.3 481.9 76C481.9 78.7 481 81 479.1 82.9C477.2 84.8 474.8 85.6 471.7 85.6C468.6 85.6 466.1 84.7 464.2 82.8C462.4 81 461.4 78.7 461.4 76C461.5 73.3 462.4 71 464.2 69.1Z" fill="#3D9EE0"/>
<path d="M521.3 34.2C522.4 31.7 523.9 29.7999 525.8 28.2999C527.7 26.8999 530.1 26.2 532.8 26.2C534.1 26.2 535.3 26.4 536.4 26.7C537.5 27 538.4 27.5 539.2 28.2C539.8 28.7 540.3 29.3 540.8 30C541.3 30.7 541.6 31.5 541.9 32.4C542.4 31.6 542.9 30.8 543.6 30.1C544.2 29.4 544.9 28.7999 545.6 28.2999C546.5 27.6999 547.6 27.1999 548.7 26.7999C549.9 26.3999 551.1 26.2999 552.5 26.2999C554.2 26.2999 555.8 26.5999 557.3 27.2999C558.8 27.8999 560.1 28.8999 561.2 30.2999C562.3 31.6999 563.2 33.5 563.8 35.7C564.4 37.9 564.7 40.5999 564.7 43.7999V84.6999H551.3V43.5999C551.3 42.4999 551.2 41.6 551 40.9C550.8 40.2 550.5 39.6 550.1 39.2C549.7 38.8 549.3 38.5 548.7 38.4C548.2 38.2 547.7 38.2 547.1 38.2C546.5 38.2 546 38.3 545.6 38.4C545.2 38.5 544.7 38.7 544.4 39C544.1 39.2 543.8 39.4999 543.6 39.7999C543.4 40.0999 543.1 40.4 543 40.7999C543 40.9 543 40.9999 543 41.2999C543 41.4999 543 41.9 543 42.2999V84.5999H530V43.5999C530 42.4999 529.9 41.6 529.7 40.9C529.5 40.2 529.2 39.5999 528.9 39.2999C528.5 38.9 528.1 38.6 527.6 38.5C527.1 38.3 526.6 38.2999 526 38.2999C525.4 38.2999 524.8 38.3999 524.3 38.5999C523.8 38.7999 523.4 39.1 523 39.5C522.7 39.8 522.5 40.1 522.3 40.5C522.1 40.9 521.9 41.2999 521.7 41.7999V84.6999H508.3V27.2999H521L521.3 34.2Z" fill="#3D9EE0"/>
<path d="M611.7 82.1C611.5 81.2 611.2 80.2 611.1 79.2C610.3 80.1 609.4 80.9 608.3 81.7C607.2 82.5 606.1 83.1 604.8 83.7C603.5 84.3 602.1 84.8 600.5 85.1C598.9 85.4 597.3 85.6 595.5 85.6C592.6 85.6 589.9 85.2001 587.4 84.3001C584.9 83.5001 582.8 82.3001 581.1 80.8001C579.3 79.3001 578 77.5 577 75.4001C576 73.3001 575.5 71 575.5 68.5C575.5 65.3 576.1 62.5 577.4 60.1C578.6 57.6 580.5 55.6 583 54C585.2 52.6 588 51.5 591.2 50.7001C594.5 49.9001 598.2 49.6 602.5 49.6H610.7V46.2001C610.7 44.9001 610.5 43.7 610.1 42.6C609.7 41.5 609 40.6 608.2 39.8C607.3 39 606.2 38.4001 604.9 37.9001C603.6 37.5001 602 37.2001 600.3 37.2001C598.7 37.2001 597.4 37.4 596.3 37.8C595.2 38.2 594.3 38.7001 593.5 39.4001C592.9 40.0001 592.4 40.7 592.1 41.6C591.8 42.4 591.6 43.4001 591.6 44.4001H576.9C576.9 42.0001 577.4 39.7 578.5 37.5C579.6 35.3 581.2 33.4001 583.2 31.7001C585.2 30.0001 587.8 28.7 590.7 27.8C593.7 26.8 597.1 26.3 600.9 26.3C604.4 26.3 607.6 26.7 610.6 27.6C613.6 28.4 616.2 29.7 618.4 31.4C620.6 33.1 622.3 35.2001 623.5 37.7001C624.7 40.2001 625.4 43.1 625.4 46.5V71.1C625.4 74.2 625.6 76.7 626 78.7C626.4 80.7 627 82.4001 627.7 83.9001V84.8001H612.8C612.3 83.9001 612 83 611.7 82.1ZM602.7 73.7C604 73.3 605.1 72.9001 606.1 72.3001C607.1 71.7001 608 71.1001 608.7 70.4001C609.4 69.7001 610 68.9 610.4 68.2V58.4001H603C600.7 58.4001 598.7 58.6 597.1 59.1C595.5 59.5 594.2 60.2001 593.1 60.9001C592.1 61.7001 591.3 62.7001 590.8 63.8C590.3 64.9 590.1 66.1001 590.1 67.4001C590.1 68.4001 590.3 69.4 590.7 70.2C591.1 71.1 591.6 71.8001 592.3 72.4001C593 73 593.9 73.4001 594.9 73.8001C595.9 74.1001 597.2 74.3001 598.5 74.3001C600.1 74.2001 601.4 74.1 602.7 73.7Z" fill="#3D9EE0"/>
<path d="M656.3 93.9C657.4 92.9 658.3 91.6 658.9 90.1C659.5 88.5 660 86.7 660.2 84.8C660.4 82.8 660.6 80.9 660.6 79V70.4C660.6 68.4 660.8 66.4 661.3 64.6C661.8 62.8 662.5 61.0999 663.5 59.5C664.5 57.9 665.7 56.5 667.2 55.2C668.7 53.9 670.5 52.9 672.6 52C670.9 51.2999 669.4 50.4 668.1 49.5C666.8 48.5 665.7 47.4 664.7 46.2C663.3 44.4 662.2 42.5 661.6 40.2999C660.9 38.0999 660.6 35.8 660.6 33.4V24.7999C660.6 22.9 660.6 21 660.5 19C660.4 17 660.1 15.3 659.6 13.7C659.1 12.1 658.2 10.8 657.1 9.89995C655.9 8.89995 654.3 8.49995 652.1 8.49995L653.9 0.199951C657.7 0.199951 660.9 0.999951 663.4 2.49995C666 3.99995 668.1 6.09995 669.7 8.69995C671.3 11 672.4 13.6 673 16.5C673.7 19.4 674 22.1999 674 24.7999V33.4C674 35.4 674.2 37.0999 674.6 38.5999C675 40.0999 675.5 41.4 676.3 42.5C677.3 43.9 678.8 45 680.6 45.7C682.5 46.4 684.7 46.7 687.3 46.7V57.2999C684.4 57.2999 681.9 57.7 680 58.5C678.1 59.2999 676.6 60.7 675.6 62.5C675.1 63.5 674.7 64.6 674.4 66C674.1 67.3 674 68.8 674 70.5V79C674 81.8 673.6 84.6 672.8 87.6C672 90.6 670.8 93.2 669.2 95.5C667.6 97.9 665.5 99.9 663 101.4C660.4 102.9 657.4 103.7 653.9 103.7L652.1 95.3C653.7 95.3 655.2 94.9 656.3 93.9Z" fill="#8BBA67"/>
</svg>
