<svg width="134" height="104" viewBox="0 0 134 104" fill="none" xmlns="http://www.w3.org/2000/svg">
<path d="M24.3 101.3C21.7 99.8 19.7 97.8 18.1 95.5C16.4 93.1 15.2 90.4 14.4 87.5C13.6 84.6 13.3 81.7 13.3 78.9V70.3C13.3 65.6 12.2 62.2 10 60.2C7.8 58.2 4.5 57.1 0 57.1V46.5C4.5 46.5 7.8 45.5 10 43.4C12.2 41.4 13.3 37.9 13.3 33.2V24.6C13.3 21.6 13.7 18.5 14.6 15.3C15.4 12.1 16.8 9.3 18.6 7C20.1 5 22.1 3.3 24.6 2C27.1 0.7 30 0 33.4 0L35.2 8.3C33 8.2 31.4 8.7 30.2 9.7C29 10.7 28.2 12 27.7 13.5C27.2 15.1 26.9 16.9 26.8 18.8C26.7 20.8 26.7 22.7 26.7 24.6V33.2C26.7 37.4 25.7 41.1 23.6 44.4C21.5 47.6 18.3 50.1 14 51.8C18.4 53.5 21.6 55.9 23.6 59.2C25.6 62.4 26.7 66.1 26.7 70.3V78.9C26.7 80.8 26.8 82.7 27 84.7C27.2 86.7 27.7 88.4 28.3 90C28.9 91.6 29.8 92.9 30.9 93.8C32 94.7 33.4 95.2 35.2 95.2L33.4 103.6C29.9 103.6 26.8 102.8 24.3 101.3Z" fill="#8BBA67"/>
<path d="M72.0002 73.2C73.3002 72.8 74.5002 72.2 75.4002 71.4C76.4002 70.6 77.2002 69.7 77.7002 68.6C78.2002 67.5 78.5002 66.3 78.4002 64.9H92.3002C92.4002 67.9 91.8002 70.6 90.5002 73.2C89.2002 75.7 87.5002 77.9 85.2002 79.8C82.9002 81.7 80.4002 83.1 77.4002 84.1C74.5002 85.1 71.3002 85.7 68.1002 85.7C63.7002 85.7 59.8002 84.9 56.4002 83.4C53.0002 81.9 50.3002 79.8 48.0002 77.2C45.7002 74.6 44.0002 71.5 42.9002 68C41.8002 64.5 41.2002 60.7 41.2002 56.7V55.1C41.2002 51.1 41.8002 47.3 42.9002 43.8C44.0002 40.3 45.7002 37.2 48.0002 34.6C50.3002 32 53.1002 29.9 56.4002 28.4C59.7002 26.9 63.6002 26.1 68.0002 26.1C71.5002 26.1 74.8002 26.6 77.8002 27.7C80.8002 28.8 83.4002 30.2 85.6002 32.1C87.8002 34 89.4002 36.4 90.6002 39.1C91.8002 41.8 92.4002 44.9 92.3002 48.3H78.5002C78.6002 46.9 78.4002 45.5 77.9002 44.3C77.4002 43 76.7002 41.9 75.7002 41C74.7002 40.1 73.6002 39.4 72.3002 38.8C71.0002 38.3 69.5002 38 67.9002 38C65.6002 38 63.6002 38.5 62.1002 39.4C60.6002 40.4 59.4002 41.6 58.5002 43.2C57.6002 44.8 56.9002 46.6 56.6002 48.7C56.2002 50.7 56.0002 52.9 56.0002 55.1V56.7C56.0002 58.9 56.2002 61.1 56.5002 63.1C56.9002 65.2 57.5002 67 58.4002 68.5C59.3002 70.1 60.5002 71.4 62.0002 72.3C63.5002 73.2 65.5002 73.7 67.9002 73.7C69.4002 73.8 70.7002 73.6 72.0002 73.2Z" fill="#3D9EE0"/>
<path d="M102.511 93.8C103.611 92.8 104.511 91.5 105.111 90C105.711 88.4 106.211 86.6 106.411 84.7C106.611 82.7 106.811 80.8 106.811 78.9V70.3C106.811 68.3 107.011 66.3 107.511 64.5C108.011 62.7 108.711 61 109.711 59.4C110.711 57.8 111.911 56.4 113.411 55.1C114.911 53.8 116.711 52.8 118.811 51.9C117.111 51.2 115.611 50.3 114.311 49.4C113.011 48.4 111.911 47.3 110.911 46.1C109.511 44.3 108.411 42.4 107.811 40.2C107.111 38 106.811 35.7 106.811 33.3V24.7C106.811 22.8 106.811 20.9 106.711 18.9C106.611 16.9 106.311 15.2 105.811 13.6C105.311 12 104.411 10.7 103.311 9.79998C102.111 8.79998 100.511 8.39998 98.311 8.39998L100.111 0.0999756C103.911 0.0999756 107.111 0.899976 109.611 2.39998C112.211 3.89998 114.311 5.99997 115.911 8.59997C117.511 10.9 118.611 13.5 119.211 16.4C119.911 19.3 120.211 22.1 120.211 24.7V33.3C120.211 35.3 120.411 37 120.811 38.5C121.211 40 121.711 41.3 122.511 42.4C123.511 43.8 125.011 44.9 126.811 45.6C128.711 46.3 130.911 46.6 133.511 46.6V57.2C130.611 57.2 128.111 57.6 126.211 58.4C124.311 59.2 122.811 60.6 121.811 62.4C121.311 63.4 120.911 64.5 120.611 65.9C120.311 67.2 120.211 68.7 120.211 70.4V79C120.211 81.8 119.811 84.6 119.011 87.6C118.211 90.6 117.011 93.2 115.411 95.5C113.811 97.9 111.711 99.9 109.211 101.4C106.611 102.9 103.611 103.7 100.111 103.7L98.311 95.3C99.911 95.3 101.411 94.8 102.511 93.8Z" fill="#8BBA67"/>
</svg>
