<svg width="167" height="105" viewBox="0 0 167 105" fill="none" xmlns="http://www.w3.org/2000/svg">
<path d="M24.3 102.2C21.7 100.7 19.7 98.7 18.1 96.4C16.4 94 15.2 91.3 14.4 88.4C13.6 85.5 13.3 82.6 13.3 79.8V71.2C13.3 66.5 12.2 63.1 10 61.1C7.8 59.1 4.5 58 0 58V47.4C4.5 47.4 7.8 46.4 10 44.3C12.2 42.3 13.3 38.8 13.3 34.1V25.5C13.3 22.5 13.7 19.4 14.6 16.2C15.4 13 16.8 10.2 18.6 7.90002C20.1 5.90002 22.1 4.20002 24.6 2.90002C27.1 1.60002 30 0.900024 33.4 0.900024L35.2 9.20004C33 9.10004 31.4 9.60004 30.2 10.6C29 11.6 28.2 12.9 27.7 14.4C27.2 16 26.9 17.8 26.8 19.7C26.7 21.7 26.7 23.6 26.7 25.5V34.1C26.7 38.3 25.7 42 23.6 45.3C21.5 48.5 18.3 51 14 52.7C18.4 54.4 21.6 56.8 23.6 60.1C25.6 63.3 26.7 67 26.7 71.2V79.8C26.7 81.7 26.8 83.6 27 85.6C27.2 87.6 27.7 89.3 28.3 90.9C28.9 92.5 29.8 93.8 30.9 94.7C32 95.6 33.4 96.1 35.2 96.1L33.4 104.5C29.9 104.5 26.9 103.7 24.3 102.2Z" fill="#8BBA67"/>
<path d="M85.7 74.1C87 73.7 88.2 73.1 89.1 72.3C90.1 71.5 90.9 70.6 91.4 69.5C91.9 68.4 92.2 67.2 92.1 65.8H106C106.1 68.8 105.5 71.5 104.2 74.1C102.9 76.6 101.2 78.8 98.9 80.7C96.6 82.6 94.1 84 91.1 85C88.2 86 85 86.6 81.8 86.6C77.4 86.6 73.5 85.8 70.1 84.3C66.7 82.8 64 80.7 61.7 78.1C59.4 75.5 57.7 72.4 56.6 68.9C55.5 65.4 54.9 61.6 54.9 57.6V56C54.9 52 55.5 48.2 56.6 44.7C57.7 41.2 59.4 38.1 61.7 35.5C64 32.9 66.8 30.8 70.1 29.3C73.4 27.8 77.3 27 81.7 27C85.2 27 88.5 27.5 91.5 28.6C94.5 29.7 97.1 31.1 99.3 33C101.5 34.9 103.1 37.3 104.3 40C105.5 42.7 106.1 45.8 106 49.2H92.1C92.2 47.8 92 46.4 91.5 45.2C91 43.9 90.3 42.8 89.3 41.9C88.3 41 87.2 40.3 85.9 39.7C84.6 39.2 83.1 38.9 81.5 38.9C79.2 38.9 77.2 39.4 75.7 40.3C74.2 41.3 73 42.5 72.1 44.1C71.2 45.7 70.5 47.5 70.2 49.6C69.8 51.6 69.6 53.8 69.6 56V57.6C69.6 59.8 69.8 62 70.1 64C70.5 66.1 71.1 67.9 72 69.4C72.9 71 74.1 72.3 75.6 73.2C77.1 74.1 79.1 74.6 81.5 74.6C83 74.7 84.4 74.5 85.7 74.1Z" fill="#3D9EE0"/>
<path d="M135.6 94.8001C136.7 93.8001 137.6 92.5001 138.2 91.0001C138.8 89.4001 139.3 87.6001 139.5 85.7001C139.7 83.7001 139.9 81.8001 139.9 79.9001V71.3001C139.9 69.3001 140.1 67.3001 140.6 65.5001C141.1 63.7001 141.8 62.0001 142.8 60.4001C143.8 58.8001 145 57.4001 146.5 56.1001C148 54.8001 149.8 53.8001 151.9 52.9001C150.2 52.2001 148.7 51.3001 147.4 50.4001C146.1 49.4001 145 48.3001 144 47.1001C142.6 45.3001 141.5 43.4001 140.9 41.2001C140.2 39.0001 139.9 36.7001 139.9 34.3001V25.7001C139.9 23.8001 139.9 21.9001 139.8 19.9001C139.7 17.9001 139.4 16.2001 138.9 14.6001C138.4 13.0001 137.5 11.7001 136.4 10.8001C135.2 9.80008 133.6 9.40009 131.4 9.40009L133.2 1.1001C137 1.1001 140.2 1.90009 142.7 3.40009C145.3 4.90009 147.4 7.0001 149 9.6001C150.6 11.9001 151.7 14.5001 152.3 17.4001C153 20.3001 153.3 23.1001 153.3 25.7001V34.3001C153.3 36.3001 153.5 38.0001 153.9 39.5001C154.3 41.0001 154.8 42.3001 155.6 43.4001C156.6 44.8001 158.1 45.9001 159.9 46.6001C161.8 47.3001 164 47.6001 166.6 47.6001V58.0001C163.7 58.0001 161.2 58.4001 159.3 59.2001C157.4 60.0001 155.9 61.4001 154.9 63.2001C154.4 64.2001 154 65.3001 153.7 66.7001C153.4 68.0001 153.3 69.5001 153.3 71.2001V79.8001C153.3 82.6001 152.9 85.4001 152.1 88.4001C151.3 91.4001 150.1 94.0001 148.5 96.3001C146.9 98.7001 144.8 100.7 142.3 102.2C139.7 103.7 136.7 104.5 133.2 104.5L131.4 96.1001C133.1 96.2001 134.5 95.7001 135.6 94.8001Z" fill="#8BBA67"/>
</svg>
