<svg id="Layer_1" data-name="Layer 1" xmlns="http://www.w3.org/2000/svg" viewBox="0 0 105.51 99.84"><defs><style>.cls-1{fill:#efefef;}</style></defs><path class="cls-1" d="M44.72,92.78a.4.4,0,0,0-.51-.09A25,25,0,0,1,14.8,89.88Q7.35,83.61,3.15,71.23A.4.4,0,0,0,2.77,71H.41a.41.41,0,0,0-.41.41V97.22a.41.41,0,0,0,.41.42H2.33a.43.43,0,0,0,.28-.11l6.32-5.65a.41.41,0,0,1,.52,0q10.82,8,21.72,8a31.3,31.3,0,0,0,15.85-4,.42.42,0,0,0,.06-.68A20.28,20.28,0,0,1,44.72,92.78Z"/><path class="cls-1" d="M94.27,11c.62,0,1.37.83,2.24,2.49a4.29,4.29,0,0,0,4,2.49A4.9,4.9,0,0,0,104,14.48a5.14,5.14,0,0,0,1.56-4,5.81,5.81,0,0,0-1.77-4.48,6,6,0,0,0-4.2-1.64q-6.09,0-11.11,6.73a.4.4,0,0,1-.33.17.39.39,0,0,1-.28-.12,23.32,23.32,0,0,0-17-6.78A25.13,25.13,0,0,0,59.2,7.08a22.61,22.61,0,0,0-2.08,1.18,28.16,28.16,0,0,0-2.91,2.17,20.67,20.67,0,0,0-4.58,5.37,17.52,17.52,0,0,0-1.11,2.26,18.8,18.8,0,0,0-1.36,7.2q0,10.89,11.39,16.3v.28a27.07,27.07,0,0,0-4.25.85,20.69,20.69,0,0,0-2.3.83q-8.18,3.58-8.18,13.77c0,.42,0,.84,0,1.24a.43.43,0,0,0,.24.34,20.2,20.2,0,0,1,5.82,3.93,17.09,17.09,0,0,1,4.36,7.14c.1.33.19.66.28,1A19.33,19.33,0,0,1,55,73.73a.41.41,0,0,0,.75.21,14.81,14.81,0,0,1,3.91-3.57.39.39,0,0,1,.21-.06l3-.11L65,70.12l2.47-.1c2.09,0,5.29-.21,9.61-.49s7.09-.43,8.33-.43a15.62,15.62,0,0,1,8.46,2.35,7.42,7.42,0,0,1,3.77,6.68q0,7.28-7.5,12.67t-19,5.41q-10.86,0-15.2-4.79L54.61,89.7a12.05,12.05,0,0,1-1.46-4.38.41.41,0,0,0-.76-.16,20.58,20.58,0,0,1-4.75,5.18l-1,.76a.41.41,0,0,0-.07.6,18.35,18.35,0,0,0,2.82,2.62c.35.27.71.53,1.09.79l.73.48q6.82,4.25,18,4.25,15.23,0,23.84-7.15t8.61-17.62q0-9-4.76-13.8a16.66,16.66,0,0,0-12.39-4.84l-20.83.86-2.16.09-1.35,0q-7.68,0-9.6-1.28a4.25,4.25,0,0,1-1.92-3.77q0-2.85,3.69-5.38a21.06,21.06,0,0,1,2.13-1.28,12.51,12.51,0,0,1,2.07-.86,7.45,7.45,0,0,1,2.28-.38q.29,0,4.56.39t6.74.39h0l3.54-.21q5,0,12.85-5t7.86-14.77a19.91,19.91,0,0,0-4-11.4.41.41,0,0,1,0-.51Q92.57,11,94.27,11ZM79.54,38.36q-1.49,3.48-8.9,3.48c-4.83,0-7.77-1.14-8.78-3.41s-1.53-7.35-1.53-15.23c0-5.46.54-9.34,1.64-11.67S65.9,8,70.5,8c3.46,0,6.09.82,7.86,2.46S81,15.75,81,21.35Q81,34.86,79.54,38.36Z"/><path class="cls-1" d="M15.44,51.13q6.2,2.59,17.76,4.56a48.34,48.34,0,0,1,7.69,1.89c0-.1,0-.2,0-.29,0-8.82,4.21-13.33,8.31-15.64-.44-.25-.88-.48-1.34-.69q-6.36-3-18.53-5.13T12.56,29.89A11.75,11.75,0,0,1,8,20.57q0-5.91,5.51-11.43T29,3.63a22.43,22.43,0,0,1,18.88,9.51l.18.25a.41.41,0,0,0,.67,0,23.6,23.6,0,0,1,4.16-4.55,27.6,27.6,0,0,1,4-2.87.38.38,0,0,0,.2-.36V4.89L57,1.55a.42.42,0,0,0-.42-.41H54.32a.42.42,0,0,0-.36.21,25.49,25.49,0,0,1-4.19,5.39.41.41,0,0,1-.52,0A34.11,34.11,0,0,0,29,0Q15.79,0,8.11,8.5A28.06,28.06,0,0,0,.43,27.82,24.62,24.62,0,0,0,4.84,42.09,24.19,24.19,0,0,0,15.44,51.13Z"/></svg>