<svg width="22" height="24" viewBox="0 0 22 24" fill="none" xmlns="http://www.w3.org/2000/svg">
<path d="M21.3803 6.07276L21.4385 6.03395C21.3221 5.82053 21.1475 5.62652 20.9728 5.52951L11.6018 0.135812C11.4466 0.0388036 11.2332 0 11.0003 0C10.7675 0 10.5541 0.0582053 10.3989 0.135812L1.08603 5.54891C0.756198 5.74293 0.523376 6.22797 0.523376 6.5966V17.4034C0.523376 17.6168 0.56218 17.8496 0.697992 18.0631L0.659189 18.0825C0.756198 18.2377 0.89201 18.3735 1.02782 18.4511L10.3795 23.8642C10.5347 23.9612 10.7481 24 10.9809 24C11.2138 24 11.4272 23.9418 11.5824 23.8642L20.8952 18.4511C21.2251 18.2571 21.4579 17.772 21.4579 17.4034V6.5772C21.4773 6.42199 21.4579 6.24737 21.3803 6.07276ZM11.0003 19.654C6.77075 19.654 3.33663 16.2199 3.33663 11.9903C3.33663 7.76071 6.77075 4.3266 11.0003 4.3266C13.8524 4.3266 16.3358 5.89814 17.6551 8.20695L15.1329 9.66209C14.318 8.20695 12.7659 7.23686 11.0003 7.23686C8.3811 7.23686 6.2469 9.37106 6.2469 11.9903C6.2469 14.6095 8.3811 16.7437 11.0003 16.7437C12.7659 16.7437 14.318 15.7736 15.1329 14.3379L17.6357 15.8124C16.3164 18.1019 13.833 19.654 11.0003 19.654ZM20.8952 11.6023H20.2744L20.0998 12.3783H20.8952V13.3484H19.9252L19.6923 14.5125H18.7416L18.9745 13.3484H18.2372L18.0044 14.5125H17.0731L17.3059 13.3484H16.8209V12.3783H17.4999L17.6745 11.6023H16.8209V10.6322H17.8492L18.082 9.46807H19.0327L18.7999 10.6322H19.5371L19.7699 9.46807H20.7012L20.4684 10.6322H20.8952V11.6023ZM18.4312 12.3783H19.1685L19.3431 11.6023H18.6058L18.4312 12.3783Z" fill="white"/>
</svg>
