<svg width="10" height="36" viewBox="0 0 10 36" fill="none" xmlns="http://www.w3.org/2000/svg">
    <path
        d="M9.41488 35.142C8.43013 35.142 7.57468 34.8851 6.84855 34.3712C6.13236 33.8689 5.55045 33.2324 5.10284 32.4615C4.62538 31.6556 4.27723 30.768 4.0584 29.7986C3.84951 28.8408 3.74506 27.9006 3.74506 26.9779V24.1223C3.74506 22.5689 3.43671 21.4534 2.81999 20.776C2.20327 20.0986 1.26328 19.7599 0 19.7599V16.256C1.26328 16.256 2.20327 15.9173 2.81999 15.2399C3.43671 14.5624 3.74506 13.4353 3.74506 11.8586V9.0029C3.74506 8.01013 3.86443 6.98816 4.10316 5.93699C4.34189 4.87413 4.71988 3.95144 5.23712 3.1689C5.66485 2.49148 6.22685 1.93669 6.92315 1.50455C7.61944 1.0724 8.45002 0.856323 9.41488 0.856323L9.92218 3.60689C9.31541 3.58353 8.8479 3.73537 8.51965 4.0624C8.1914 4.37775 7.95267 4.79822 7.80346 5.3238C7.65426 5.84939 7.56473 6.43921 7.53489 7.09327C7.515 7.73566 7.50505 8.3722 7.50505 9.0029V11.8586C7.50505 13.2485 7.21161 14.4807 6.62474 15.5552C6.04781 16.6297 5.1476 17.4473 3.92411 18.0079C5.15755 18.5686 6.06273 19.3803 6.63966 20.4431C7.21659 21.506 7.50505 22.7324 7.50505 24.1223V26.9779C7.50505 27.6086 7.53489 28.2452 7.59457 28.8876C7.6642 29.5416 7.78854 30.1315 7.96759 30.657C8.14664 31.1826 8.39034 31.6031 8.6987 31.9184C9.017 32.2455 9.42483 32.3973 9.92218 32.3739L9.41488 35.142Z"
        fill="#AAB1C0" />
</svg>