<svg width="44" height="16" viewBox="0 0 44 16" fill="none" xmlns="http://www.w3.org/2000/svg">
<path d="M6.17854 0V15.7851H8.02534V4.36873C8.03913 3.6464 8.00841 2.9239 7.93334 2.20534H8.00369C8.13899 2.5517 8.30586 2.88047 8.50429 3.19165L16.6221 15.777H18.8843V0H17.0456V11.0984C17.0239 11.8736 17.0672 12.6489 17.1579 13.4174H17.1159C16.9137 13.0583 16.6998 12.7059 16.4746 12.3607L8.57465 0.00135352L6.17854 0ZM22.9783 0V15.7851H31.3708L31.3776 14.0519H24.8657V8.57646H30.5671V6.91367H24.8657V1.67092H30.9825V0.00135352L22.9783 0ZM32.7874 0V1.66956H37.3252V15.7837H39.172V1.66956H43.7599V0H32.7874ZM1.64068 13.5297C1.48537 13.5338 1.33244 13.5689 1.19093 13.633C1.04942 13.6972 0.92218 13.789 0.816727 13.9031C0.703791 14.0173 0.614568 14.1527 0.554195 14.3016C0.493822 14.4504 0.463493 14.6097 0.464955 14.7704C0.462841 15.013 0.533186 15.2507 0.666985 15.4532C0.800785 15.6556 0.991951 15.8135 1.21601 15.9066C1.44007 15.9998 1.68683 16.0239 1.9247 15.976C2.16257 15.9281 2.38072 15.8102 2.55123 15.6376C2.78394 15.4117 2.91789 15.0951 2.91789 14.7704C2.91789 14.4456 2.78394 14.129 2.55123 13.9031C2.43978 13.785 2.30535 13.691 2.15621 13.6267C2.00706 13.5625 1.84636 13.5295 1.68398 13.5297H1.64068Z" fill="white"/>
</svg>
