<svg width="25" height="24" viewBox="0 0 25 24" fill="none" xmlns="http://www.w3.org/2000/svg">
<g clip-path="url(#clip0_4_213)">
<path d="M18.8984 0H6.14838C3.04177 0 0.523376 2.5184 0.523376 5.625V18.375C0.523376 21.4816 3.04177 24 6.14838 24H18.8984C22.005 24 24.5234 21.4816 24.5234 18.375V5.625C24.5234 2.5184 22.005 0 18.8984 0Z" fill="white"/>
<path d="M21.8984 17.1504C21.6255 17.2538 21.3241 17.2536 21.0513 17.1499C20.7785 17.0461 20.5532 16.846 20.418 16.5874C19.5683 15.3155 18.6301 14.101 17.7283 12.8604L17.3373 12.3391C16.2634 13.7778 15.1896 15.1591 14.2097 16.5927C14.082 16.8398 13.8689 17.0321 13.61 17.1338C13.351 17.2355 13.064 17.2395 12.8023 17.1452L16.8317 11.7397L13.0837 6.85532C13.3535 6.75791 13.6487 6.75658 13.9193 6.85154C14.19 6.94651 14.4196 7.13195 14.5694 7.37657C15.4398 8.64857 16.4043 9.8631 17.3633 11.1507C18.3277 9.87351 19.2816 8.65373 20.173 7.39223C20.3013 7.14906 20.5146 6.96157 20.7722 6.86545C21.0298 6.76933 21.3137 6.7713 21.57 6.87098L20.1156 8.79969C19.4641 9.65976 18.8229 10.5251 18.1453 11.3643C18.0907 11.4132 18.047 11.4731 18.0171 11.54C17.9872 11.6069 17.9717 11.6794 17.9717 11.7527C17.9717 11.826 17.9872 11.8985 18.0171 11.9654C18.047 12.0323 18.0907 12.0921 18.1453 12.141C19.3911 13.7935 20.6265 15.4511 21.8984 17.1504ZM3.14838 11.6719C3.25788 11.1507 3.32556 10.5824 3.47678 10.0508C4.37856 6.84501 8.05347 5.51048 10.5816 7.49657C12.062 8.65907 12.4322 10.3063 12.3592 12.1619H4.01894C3.88338 15.4772 6.27597 17.4789 9.33578 16.4572C9.83215 16.2797 10.2765 15.9813 10.6287 15.5891C10.9809 15.1968 11.2298 14.723 11.3531 14.2105C11.5147 13.6892 11.7753 13.6006 12.2705 13.7518C12.189 14.3863 11.9646 14.9942 11.6143 15.5296C11.264 16.065 10.7969 16.514 10.2481 16.8429C9.34129 17.3388 8.3009 17.5353 7.2757 17.4043C6.25051 17.2732 5.29302 16.8213 4.54019 16.1131C3.79539 15.2757 3.34505 14.2175 3.25788 13.1002C3.25788 12.923 3.1901 12.7457 3.15363 12.5789C3.15018 12.2766 3.14843 11.9743 3.14838 11.6719ZM4.02935 11.4478H11.5721C11.5251 9.04476 10.0083 7.34019 7.98578 7.32463C5.73391 7.29332 4.12319 8.96132 4.0241 11.4374L4.02935 11.4478Z" fill="#2B2B2B"/>
</g>
<defs>
<clipPath id="clip0_4_213">
<rect width="24" height="24" fill="white" transform="translate(0.523376)"/>
</clipPath>
</defs>
</svg>
