<svg width="24" height="24" viewBox="0 0 24 24" fill="none" xmlns="http://www.w3.org/2000/svg">
<path d="M7.02182 0H16.7964C20.52 0 23.5455 3.02545 23.5455 6.74909V16.5236C23.5455 18.3136 22.8344 20.0303 21.5687 21.296C20.303 22.5617 18.5863 23.2727 16.7964 23.2727H7.02182C3.29818 23.2727 0.272728 20.2473 0.272728 16.5236V6.74909C0.272728 4.95912 0.983791 3.24246 2.24949 1.97676C3.51519 0.711063 5.23185 0 7.02182 0ZM6.78909 2.32727C5.67808 2.32727 4.61256 2.76862 3.82696 3.55423C3.04135 4.33984 2.6 5.40535 2.6 6.51636V16.7564C2.6 19.072 4.47345 20.9455 6.78909 20.9455H17.0291C18.1401 20.9455 19.2056 20.5041 19.9912 19.7185C20.7768 18.9329 21.2182 17.8674 21.2182 16.7564V6.51636C21.2182 4.20073 19.3447 2.32727 17.0291 2.32727H6.78909ZM18.0182 4.07273C18.404 4.07273 18.7739 4.22597 19.0467 4.49875C19.3195 4.77153 19.4727 5.1415 19.4727 5.52727C19.4727 5.91304 19.3195 6.28301 19.0467 6.55579C18.7739 6.82857 18.404 6.98182 18.0182 6.98182C17.6324 6.98182 17.2624 6.82857 16.9897 6.55579C16.7169 6.28301 16.5636 5.91304 16.5636 5.52727C16.5636 5.1415 16.7169 4.77153 16.9897 4.49875C17.2624 4.22597 17.6324 4.07273 18.0182 4.07273ZM11.9091 5.81818C13.4522 5.81818 14.932 6.43117 16.0232 7.52229C17.1143 8.61341 17.7273 10.0933 17.7273 11.6364C17.7273 13.1794 17.1143 14.6593 16.0232 15.7504C14.932 16.8416 13.4522 17.4545 11.9091 17.4545C10.366 17.4545 8.88614 16.8416 7.79502 15.7504C6.70389 14.6593 6.09091 13.1794 6.09091 11.6364C6.09091 10.0933 6.70389 8.61341 7.79502 7.52229C8.88614 6.43117 10.366 5.81818 11.9091 5.81818ZM11.9091 8.14546C10.9832 8.14546 10.0953 8.51325 9.44065 9.16792C8.78597 9.82259 8.41818 10.7105 8.41818 11.6364C8.41818 12.5622 8.78597 13.4501 9.44065 14.1048C10.0953 14.7595 10.9832 15.1273 11.9091 15.1273C12.8349 15.1273 13.7229 14.7595 14.3775 14.1048C15.0322 13.4501 15.4 12.5622 15.4 11.6364C15.4 10.7105 15.0322 9.82259 14.3775 9.16792C13.7229 8.51325 12.8349 8.14546 11.9091 8.14546Z" fill="#fff"/>
</svg>
