<svg width="25" height="24" viewBox="0 0 25 24" fill="none" xmlns="http://www.w3.org/2000/svg">
<g clip-path="url(#clip0_4_248)">
<path fill-rule="evenodd" clip-rule="evenodd" d="M24.0817 0H0.0817108V24H24.0817V0ZM8.22877 18.9446L6.39221 20.0561L6.39211 20.0559C6.92377 21.1836 7.97105 22.118 9.77527 22.118C11.7731 22.118 13.1424 21.0547 13.1424 18.7187V11.0183H10.8871V18.6868C10.8871 19.8145 10.4197 20.1043 9.67862 20.1043C8.90546 20.1043 8.58315 19.5728 8.22877 18.9446ZM16.2038 18.7512L14.3674 19.8144L14.3673 19.8145C15.0278 21.1195 16.3811 22.1183 18.4754 22.1183C20.618 22.1183 22.2129 21.0068 22.2129 18.9767C22.2129 17.092 21.1336 16.2543 19.2164 15.4326L18.6526 15.191C17.686 14.7721 17.2671 14.4981 17.2671 13.8215C17.2671 13.2738 17.686 12.8549 18.3466 12.8549C18.991 12.8549 19.4097 13.1288 19.7964 13.8215L21.5525 12.6937C20.8115 11.3888 19.7805 10.8893 18.3467 10.8893C16.3328 10.8893 15.044 12.1782 15.044 13.8698C15.044 15.7063 16.1234 16.5763 17.7506 17.2689L18.3143 17.5107C19.3454 17.9617 19.9576 18.2356 19.9576 19.0089C19.9576 19.6533 19.3617 20.1206 18.4271 20.1206C17.3156 20.1206 16.6873 19.5406 16.2038 18.7512Z" fill="white"/>
</g>
<defs>
<clipPath id="clip0_4_248">
<rect width="24" height="24" fill="white" transform="translate(0.0817108)"/>
</clipPath>
</defs>
</svg>
