<svg width="24" height="24" viewBox="0 0 24 24" fill="none" xmlns="http://www.w3.org/2000/svg">
<path d="M20.6869 0C21.3727 0 22.0304 0.272438 22.5153 0.75738C23.0003 1.24232 23.2727 1.90005 23.2727 2.58586V20.6869C23.2727 21.3727 23.0003 22.0304 22.5153 22.5153C22.0304 23.0003 21.3727 23.2727 20.6869 23.2727H2.58586C1.90005 23.2727 1.24232 23.0003 0.75738 22.5153C0.272438 22.0304 0 21.3727 0 20.6869V2.58586C0 1.90005 0.272438 1.24232 0.75738 0.75738C1.24232 0.272438 1.90005 0 2.58586 0H20.6869ZM20.0404 20.0404V13.1879C20.0404 12.07 19.5963 10.9979 18.8059 10.2075C18.0154 9.417 16.9433 8.97293 15.8255 8.97293C14.7265 8.97293 13.4465 9.64525 12.8259 10.6537V9.21859H9.21859V20.0404H12.8259V13.6663C12.8259 12.6707 13.6275 11.8562 14.623 11.8562C15.1031 11.8562 15.5635 12.0469 15.903 12.3863C16.2424 12.7258 16.4331 13.1862 16.4331 13.6663V20.0404H20.0404ZM5.01657 7.18869C5.59265 7.18869 6.14514 6.95984 6.55249 6.55249C6.95984 6.14514 7.18869 5.59265 7.18869 5.01657C7.18869 3.81414 6.21899 2.83152 5.01657 2.83152C4.43705 2.83152 3.88128 3.06173 3.4715 3.4715C3.06172 3.88128 2.83151 4.43705 2.83151 5.01657C2.83151 6.21899 3.81414 7.18869 5.01657 7.18869ZM6.81374 20.0404V9.21859H3.23232V20.0404H6.81374Z" fill="#666666"/>
</svg>
