<svg width="25" height="24" viewBox="0 0 25 24" fill="none" xmlns="http://www.w3.org/2000/svg">
<g clip-path="url(#clip0_4_222)">
<mask id="mask0_4_222" style="mask-type:luminance" maskUnits="userSpaceOnUse" x="0" y="0" width="25" height="24">
<path d="M0.523376 0H24.5234V24H0.523376V0Z" fill="white"/>
</mask>
<g mask="url(#mask0_4_222)">
<path d="M11.7374 0.006125C11.6854 0.011125 11.5214 0.028125 11.3734 0.039125C7.96538 0.347125 4.77338 2.18613 2.74938 5.01313C1.63237 6.56523 0.905862 8.36367 0.631376 10.2561C0.535376 10.9161 0.523376 11.1101 0.523376 12.0041C0.523376 12.8981 0.535376 13.0931 0.631376 13.7521C1.28338 18.2591 4.49138 22.0451 8.84038 23.4481C9.61938 23.6991 10.4404 23.8701 11.3734 23.9741C11.7374 24.0141 13.3094 24.0141 13.6734 23.9741C15.2844 23.7951 16.6504 23.3961 17.9964 22.7091C18.2034 22.6041 18.2434 22.5751 18.2154 22.5521C17.557 21.6838 16.9053 20.8105 16.2604 19.9321L14.3414 17.3391L11.9374 13.7801C11.1375 12.5897 10.3301 11.4044 9.51538 10.2241C9.50638 10.2211 9.49738 11.8021 9.49238 13.7341C9.48538 17.1141 9.48238 17.2501 9.44038 17.3301C9.39911 17.4233 9.32611 17.4988 9.23438 17.5431C9.15938 17.5811 9.09438 17.5881 8.73938 17.5881H8.33338L8.22538 17.5201C8.15855 17.4779 8.10431 17.4185 8.06838 17.3481L8.01838 17.2431L8.02338 12.5391L8.03038 7.83313L8.10338 7.74113C8.15183 7.6829 8.21087 7.63438 8.27738 7.59813C8.37338 7.55113 8.41038 7.54713 8.81738 7.54713C9.29538 7.54713 9.37538 7.56513 9.49938 7.70113C9.53438 7.73913 10.8364 9.70113 12.3944 12.0631L17.1284 19.2351L19.0284 22.1131L19.1254 22.0501C20.0399 21.4424 20.8689 20.7149 21.5904 19.8871C23.1024 18.1563 24.0832 16.0262 24.4154 13.7521C24.5114 13.0921 24.5234 12.8981 24.5234 12.0041C24.5234 11.1101 24.5114 10.9161 24.4154 10.2561C23.7634 5.75012 20.5554 1.96313 16.2064 0.560125C15.3936 0.301694 14.5566 0.126462 13.7084 0.037125C13.4824 0.013125 11.9324 -0.012875 11.7384 0.007125M16.6514 7.26713C16.7072 7.29507 16.757 7.33388 16.7977 7.38127C16.8384 7.42866 16.8692 7.48368 16.8884 7.54313C16.9064 7.60313 16.9114 8.90813 16.9064 11.8481L16.8994 16.0661L16.1564 14.9261L15.4104 13.7861V10.7201C15.4104 8.73713 15.4194 7.62313 15.4334 7.56913C15.4501 7.50671 15.4793 7.44832 15.5192 7.39746C15.559 7.34659 15.6088 7.30431 15.6654 7.27313C15.7624 7.22313 15.7974 7.21913 16.1654 7.21913C16.5124 7.21913 16.5734 7.22413 16.6514 7.26613" fill="white"/>
</g>
</g>
<defs>
<clipPath id="clip0_4_222">
<rect width="24" height="24" fill="white" transform="translate(0.523376)"/>
</clipPath>
</defs>
</svg>
