<svg width="22" height="24" viewBox="0 0 22 24" fill="none" xmlns="http://www.w3.org/2000/svg">
<g clip-path="url(#clip0_4_211)">
<path d="M10.8936 23.9554C10.5635 23.9554 10.2554 23.8674 9.96932 23.7134L7.04224 21.9747C6.6021 21.7327 6.82217 21.6446 6.95421 21.6006C7.5484 21.4026 7.65843 21.3585 8.27462 21.0064C8.34073 20.9623 8.42875 20.9843 8.49469 21.0284L10.7396 22.3709C10.8276 22.4149 10.9376 22.4149 11.0036 22.3709L19.7848 17.2871C19.8729 17.2431 19.9169 17.1551 19.9169 17.045V6.89934C19.9169 6.7893 19.8729 6.70127 19.7848 6.65726L11.0036 1.59542C10.9156 1.5514 10.8056 1.5514 10.7396 1.59542L1.95839 6.65734C1.87036 6.70136 1.82635 6.81139 1.82635 6.89942V17.045C1.82635 17.1331 1.87036 17.2431 1.95839 17.2871L4.35731 18.6735C5.6558 19.3337 6.46997 18.5635 6.46997 17.7933V7.77961C6.46997 7.64757 6.58009 7.51553 6.73414 7.51553H7.85658C7.98862 7.51553 8.12066 7.62556 8.12066 7.77961V17.7932C8.12066 19.5318 7.17428 20.5441 5.52368 20.5441C5.01752 20.5441 4.62139 20.5441 3.49904 19.994L1.18815 18.6735C0.615966 18.3433 0.263855 17.7272 0.263855 17.0669V6.92143C0.263855 6.26122 0.615966 5.64502 1.18815 5.31484L9.96932 0.231073C10.5195 -0.0770242 11.2677 -0.0770242 11.8179 0.231073L20.5991 5.31484C21.1713 5.64494 21.5234 6.26113 21.5234 6.92143V17.067C21.5234 17.7272 21.1713 18.3434 20.5991 18.6735L11.8179 23.7575C11.5318 23.8895 11.2017 23.9555 10.8936 23.9555M13.6005 16.979C9.74917 16.979 8.95692 15.2184 8.95692 13.7219C8.95692 13.5899 9.06696 13.4578 9.221 13.4578H10.3654C10.4974 13.4578 10.6075 13.5458 10.6075 13.6779C10.7836 14.8442 11.2897 15.4165 13.6226 15.4165C15.4712 15.4165 16.2635 14.9984 16.2635 14.0081C16.2635 13.4358 16.0435 13.0177 13.1604 12.7315C10.7616 12.4894 9.26502 11.9613 9.26502 10.0467C9.26502 8.26393 10.7615 7.2076 13.2704 7.2076C16.0874 7.2076 17.4739 8.1759 17.65 10.2887C17.65 10.3547 17.628 10.4207 17.584 10.4867C17.54 10.5307 17.4739 10.5747 17.4079 10.5747H16.2635C16.1534 10.5747 16.0435 10.4867 16.0214 10.3767C15.7573 9.1663 15.0751 8.77017 13.2704 8.77017C11.2458 8.77017 11.0036 9.47439 11.0036 10.0026C11.0036 10.6408 11.2897 10.8388 14.0187 11.1909C16.7257 11.543 18.0021 12.0493 18.0021 13.942C17.9801 15.8787 16.3956 16.979 13.6005 16.979Z" fill="white"/>
</g>
<defs>
<clipPath id="clip0_4_211">
<rect width="21.2595" height="24" fill="white" transform="translate(0.263855)"/>
</clipPath>
</defs>
</svg>
