<svg width="25" height="24" viewBox="0 0 25 24" fill="none" xmlns="http://www.w3.org/2000/svg">
<path d="M12.2639 13.8555C13.2994 13.8555 14.1389 13.016 14.1389 11.9805C14.1389 10.9449 13.2994 10.1055 12.2639 10.1055C11.2283 10.1055 10.3889 10.9449 10.3889 11.9805C10.3889 13.016 11.2283 13.8555 12.2639 13.8555Z" fill="white"/>
<path d="M12.2639 16.2794C10.0102 16.3337 7.76224 16.0299 5.60385 15.3794C4.60682 15.0633 3.67691 14.5654 2.8611 13.9109C2.5497 13.6874 2.29037 13.3991 2.10096 13.0658C1.91156 12.7326 1.79655 12.3623 1.76385 11.9804C1.76385 10.7406 3.12585 9.52563 5.40735 8.73063C7.62354 8.02677 9.93884 7.68538 12.2639 7.71963C14.5579 7.68791 16.8422 8.02314 19.0304 8.71263C19.9904 9.0191 20.8887 9.49289 21.6839 10.1121C21.9895 10.3256 22.2446 10.6036 22.4312 10.9264C22.6178 11.2492 22.7314 11.609 22.7639 11.9804C22.7639 13.2689 21.2414 14.5746 18.7889 15.3861C16.6723 16.0157 14.4717 16.3169 12.2639 16.2794ZM12.2639 8.61663C10.0395 8.58756 7.82462 8.9121 5.70211 9.57813C3.6021 10.3109 2.66086 11.3129 2.66086 11.9781C2.66086 12.6741 3.67261 13.7684 5.8941 14.5281C7.95888 15.1476 10.1088 15.436 12.2639 15.3824C14.3762 15.4202 16.4818 15.1343 18.5076 14.5349C20.8139 13.7706 21.8639 12.6749 21.8639 11.9804C21.8259 11.7421 21.739 11.5142 21.6086 11.3112C21.4782 11.1082 21.3072 10.9343 21.1064 10.8006C20.3951 10.2511 19.5926 9.83114 18.7356 9.56013C16.6423 8.90342 14.4576 8.58492 12.2639 8.61663Z" fill="white"/>
<path d="M8.00385 21.3321C7.65398 21.3401 7.30824 21.2552 7.00185 21.0861C5.92785 20.4666 5.55585 18.6801 6.0066 16.3064C6.50416 14.0349 7.36524 11.8586 8.5566 9.86164C9.67491 7.85864 11.1062 6.04728 12.7964 4.49614C13.5415 3.81747 14.4007 3.27588 15.3344 2.89639C15.6722 2.73854 16.0407 2.65674 16.4136 2.65674C16.7865 2.65674 17.155 2.73854 17.4929 2.89639C18.6096 3.53989 18.9794 5.51089 18.4581 8.04064C17.9458 10.1891 17.1071 12.2462 15.9711 14.1404C14.8922 16.1198 13.506 17.9154 11.8641 19.4601C11.0922 20.1657 10.1964 20.7223 9.22185 21.1019C8.83182 21.247 8.41996 21.3249 8.00385 21.3321ZM9.3336 10.3071C8.19727 12.2194 7.37199 14.3001 6.8886 16.4714C6.47385 18.6576 6.8721 19.9724 7.4511 20.3069C8.0511 20.6541 9.5076 20.3249 11.2761 18.7799C12.8437 17.3002 14.1669 15.5813 15.1964 13.6874C16.2846 11.8765 17.0891 9.90974 17.5821 7.85539C18.0726 5.47414 17.6489 4.01614 17.0474 3.66964C16.8219 3.58339 16.581 3.5448 16.3399 3.55629C16.0987 3.56777 15.8626 3.6291 15.6464 3.73639C14.8152 4.07948 14.051 4.56643 13.3889 5.17489C11.7742 6.66079 10.407 8.39485 9.33885 10.3116L9.3336 10.3071Z" fill="white"/>
<path d="M16.5216 21.342C15.5054 21.342 14.2146 20.727 12.8706 19.5712C11.1511 18.0058 9.69557 16.173 8.56035 14.1435C7.38368 12.1741 6.5294 10.0293 6.02985 7.79023C5.81371 6.80505 5.7736 5.7894 5.91135 4.79023C5.94374 4.4197 6.05679 4.06075 6.24258 3.73853C6.42837 3.41631 6.6824 3.13864 6.98685 2.92498C8.1021 2.27923 9.99435 2.94298 11.9256 4.65748C13.531 6.17412 14.8944 7.92801 15.9681 9.85798C17.1441 11.7813 18.0074 13.8792 18.5256 16.0732C18.7514 17.0945 18.7863 18.1488 18.6284 19.1827C18.5909 19.5641 18.4714 19.9328 18.278 20.2636C18.0846 20.5944 17.8218 20.8794 17.5079 21.099C17.2063 21.2657 16.866 21.3495 16.5216 21.342ZM9.3366 13.692C10.4257 15.6314 11.816 17.3856 13.4556 18.8887C15.1424 20.34 16.4804 20.652 17.0556 20.3137C17.6556 19.965 18.0981 18.5415 17.6421 16.2382C17.1427 14.1434 16.3147 12.1408 15.1889 10.305C14.1642 8.45783 12.8629 6.77838 11.3301 5.32498C9.5121 3.71098 8.0376 3.35023 7.43685 3.69823C7.24971 3.85049 7.09613 4.03984 6.98577 4.25437C6.8754 4.4689 6.81066 4.70395 6.7956 4.94473C6.67645 5.8358 6.7153 6.7409 6.91035 7.61848C7.39101 9.7597 8.21031 11.8105 9.33735 13.6935L9.3366 13.692Z" fill="white"/>
</svg>
