<svg width="21" height="24" viewBox="0 0 21 24" fill="none" xmlns="http://www.w3.org/2000/svg">
<path d="M10.3198 14.3309C9.90712 14.5205 9.45497 14.7676 8.5498 15.2643C8.20661 15.4574 7.84798 15.6504 7.51423 15.8323C7.49106 15.8091 7.46704 15.78 7.44387 15.756C5.65328 13.8427 2.34149 12.4914 2.4822 9.92172C2.53453 8.98567 2.85627 6.52842 8.84237 3.54438C13.7689 1.11631 17.689 1.78896 18.3659 3.28098C19.3389 5.40791 16.2647 9.36575 11.1769 9.93973C10.6138 10.0539 10.0323 10.0401 9.47523 9.89928C8.9182 9.7585 8.39991 9.49436 7.95866 9.12637C7.68925 8.8338 7.64893 8.81664 7.5494 8.87499C7.38553 8.96078 7.49106 9.2259 7.5494 9.37776C7.74348 9.72914 8.00603 10.038 8.32154 10.2862C8.63706 10.5344 8.99912 10.7168 9.38633 10.8226C11.3885 11.2554 13.476 11.0486 15.3544 10.2314C18.438 9.038 20.8455 5.72021 20.1402 2.93865C19.4324 0.118486 14.7513 -0.81156 10.3224 0.761968C7.54878 1.69664 4.98623 3.168 2.78077 5.09217C0.340688 7.37439 -0.0454007 9.35803 0.112467 10.1885C0.680447 13.1374 4.74554 15.0567 6.37569 16.4784C6.29104 16.5241 6.21697 16.565 6.15348 16.6011C5.34011 17.0052 2.23939 18.6259 1.46635 20.3401C0.588644 22.2826 1.60706 23.6751 2.27971 23.8621C3.2934 24.1052 4.35771 24.0255 5.32389 23.6342C6.29007 23.2428 7.10985 22.5594 7.66866 21.6794C8.14336 20.9499 8.43485 20.1164 8.51835 19.2501C8.60185 18.3837 8.47489 17.5099 8.14827 16.7032C8.3409 16.5493 8.54643 16.4124 8.76258 16.2939C9.17784 16.0485 9.57337 15.8066 9.92428 15.6195C11.126 15.0574 12.437 14.7677 13.7637 14.771C16.5487 15.0987 17.0987 16.8361 16.9931 17.568C16.9436 17.8276 16.8391 18.0736 16.6867 18.2895C16.5343 18.5054 16.3375 18.6862 16.1094 18.8198C15.9164 18.9425 15.852 18.9837 15.8692 19.0712C15.8924 19.1999 15.9859 19.1939 16.1498 19.1707C16.5682 19.0385 16.9368 18.7827 17.2072 18.4371C17.4777 18.0915 17.6372 17.6722 17.6649 17.2342C17.7507 15.5183 16.1146 13.6359 13.2181 13.6531C12.3508 13.6556 11.4924 13.8266 10.6905 14.1567C10.5618 14.2099 10.4368 14.2671 10.3155 14.3283L10.3198 14.3309ZM6.18007 21.0565C5.25518 22.0629 3.96821 22.443 3.41224 22.1213C2.81166 21.7781 3.04932 20.2895 4.18442 19.2247C4.85614 18.6183 5.58283 18.0758 6.3551 17.604C6.4898 17.5182 6.68885 17.405 6.92823 17.2608L6.99258 17.2257L7.13329 17.1399C7.33555 17.8186 7.35388 18.5389 7.1864 19.2271C7.01891 19.9153 6.67163 20.5466 6.18007 21.0565Z" fill="white"/>
</svg>
