<svg width="25" height="24" viewBox="0 0 25 24" fill="none" xmlns="http://www.w3.org/2000/svg">
<path d="M0.263855 12V24H24.2639V0H0.263855V12ZM19.604 11.04C20.1788 11.1734 20.7013 11.474 21.1055 11.904C21.3279 12.1357 21.5214 12.3936 21.6815 12.672C21.6815 12.7027 20.6447 13.4035 20.013 13.7952C19.9899 13.8106 19.8978 13.7107 19.796 13.559C19.6807 13.3601 19.5169 13.1935 19.3198 13.075C19.1227 12.9565 18.8988 12.8899 18.669 12.8813C17.9413 12.8314 17.4728 13.2134 17.4767 13.8413C17.4708 13.9976 17.5066 14.1526 17.5803 14.2906C17.7397 14.6227 18.0373 14.8205 18.9704 15.2237C20.6888 15.9629 21.4242 16.4506 21.8811 17.1437C22.3919 17.9117 22.5051 19.152 22.1595 20.0698C21.7755 21.0682 20.8347 21.7459 19.5042 21.9706C18.8965 22.0402 18.2824 22.0338 17.6763 21.9514C16.7474 21.7982 15.8917 21.3522 15.2341 20.6784C15.0133 20.4346 14.5832 19.799 14.6101 19.753C14.68 19.7007 14.7539 19.6539 14.8309 19.6128L15.7199 19.1213L16.4091 18.7219L16.5531 18.935C16.7962 19.2826 17.1055 19.5788 17.4632 19.8067C18.2312 20.2099 19.2795 20.1542 19.7979 19.6877C19.972 19.5167 20.0806 19.2901 20.1048 19.0473C20.129 18.8046 20.0673 18.561 19.9304 18.359C19.7384 18.0922 19.3544 17.8675 18.2811 17.399C17.0427 16.8653 16.509 16.535 16.0213 16.009C15.7169 15.6617 15.4922 15.2522 15.3627 14.809C15.2663 14.3025 15.252 13.7839 15.3205 13.273C15.5759 12.0768 16.4725 11.2416 17.7819 10.9939C18.3884 10.919 19.0026 10.9358 19.604 11.0438V11.04ZM13.9707 12.0461V13.0291H10.8546V21.9053H8.64466V13.0272H5.52081V12.0672C5.51102 11.7361 5.51871 11.4048 5.54386 11.0746C5.55922 11.0573 7.46386 11.0573 9.76785 11.0573H13.9592L13.9707 12.0461Z" fill="white"/>
</svg>
