<svg width="25" height="24" viewBox="0 0 25 24" fill="none" xmlns="http://www.w3.org/2000/svg">
<path d="M20.6583 3.38624C19.5913 2.30883 18.3206 1.45457 16.9201 0.873209C15.5197 0.291854 14.0175 -0.00496077 12.5012 6.27142e-05C6.14777 6.27142e-05 0.969601 5.17823 0.969601 11.5317C0.969601 13.568 1.50487 15.5462 2.5056 17.2917L0.876511 23.2727L6.98558 21.6669C8.67285 22.5862 10.5696 23.0749 12.5012 23.0749C18.8546 23.0749 24.0328 17.8967 24.0328 11.5433C24.0328 8.45968 22.8343 5.56223 20.6583 3.38624ZM12.5012 21.12C10.779 21.12 9.09176 20.6546 7.61395 19.7818L7.26486 19.5724L3.63432 20.5266L4.60014 16.9891L4.36741 16.6284C3.41038 15.1006 2.90231 13.3345 2.90123 11.5317C2.90123 6.24877 7.20667 1.94333 12.4896 1.94333C15.0496 1.94333 17.4583 2.94406 19.2619 4.75932C20.1551 5.64818 20.863 6.70555 21.3444 7.8701C21.8258 9.03464 22.0712 10.2832 22.0663 11.5433C22.0895 16.8262 17.7841 21.12 12.5012 21.12ZM17.7608 13.952C17.4699 13.8124 16.0503 13.1142 15.7943 13.0095C15.5267 12.9164 15.3405 12.8698 15.1427 13.1491C14.9448 13.44 14.3979 14.0917 14.235 14.2778C14.0721 14.4757 13.8976 14.4989 13.6067 14.3477C13.3157 14.208 12.3848 13.8938 11.291 12.9164C10.4299 12.1484 9.85976 11.2059 9.68521 10.9149C9.5223 10.624 9.66194 10.4728 9.81321 10.3215C9.94121 10.1935 10.1041 9.98404 10.2438 9.82113C10.3834 9.65822 10.4416 9.53022 10.5347 9.34404C10.6278 9.14622 10.5812 8.98331 10.5114 8.84368C10.4416 8.70404 9.85976 7.28441 9.62703 6.70259C9.3943 6.14405 9.14994 6.21386 8.9754 6.20223H8.41685C8.21903 6.20223 7.91649 6.27205 7.64885 6.56295C7.39286 6.85386 6.64813 7.55204 6.64813 8.97168C6.64813 10.3913 7.68376 11.7644 7.8234 11.9506C7.96304 12.1484 9.85976 15.0575 12.7456 16.3026C13.4321 16.6051 13.9674 16.7797 14.3863 16.9077C15.0728 17.1287 15.7012 17.0938 16.2016 17.024C16.7601 16.9426 17.9121 16.3258 18.1448 15.6509C18.3892 14.976 18.3892 14.4058 18.3077 14.2778C18.2263 14.1498 18.0517 14.0917 17.7608 13.952Z" fill="#fff"/>
</svg>
